<svg width="819" height="623" viewBox="0 0 819 623" fill="none" xmlns="http://www.w3.org/2000/svg">
<path d="M119.715 559.89C279.332 643.347 538.126 643.347 697.742 559.89C857.358 476.433 857.358 341.31 697.742 257.931C538.126 174.552 279.332 174.474 119.715 257.931C-39.9008 341.388 -39.9008 476.491 119.715 559.89Z" fill="#F5F5F5"/>
<path d="M207.889 176.318L246.356 154.114L207.889 131.911L169.071 154.114L207.889 176.318Z" stroke="#EBEBEB" stroke-width="1.08419" stroke-linecap="round" stroke-linejoin="round"/>
<path d="M178.019 154.134L207.908 67.7462V171.388L178.019 154.134Z" fill="#E0E0E0"/>
<path d="M207.908 171.388L237.778 154.134L207.908 67.7462V171.388Z" fill="#E6E6E6"/>
<path d="M160.881 203.412L199.349 181.209L160.881 159.005L122.064 181.209L160.881 203.412Z" stroke="#EBEBEB" stroke-width="1.08419" stroke-linecap="round" stroke-linejoin="round"/>
<path d="M131.011 181.228L160.881 52.9374V198.482L131.011 181.228Z" fill="#E0E0E0"/>
<path d="M160.881 198.482L190.751 181.228L160.881 52.9374V198.482Z" fill="#E6E6E6"/>
<path d="M113.874 230.507L152.341 208.303L113.874 186.1L75.037 208.303L113.874 230.507Z" stroke="#EBEBEB" stroke-width="1.08419" stroke-linecap="round" stroke-linejoin="round"/>
<path d="M84.0037 208.322L113.873 131.911V225.577L84.0037 208.322Z" fill="#E0E0E0"/>
<path d="M113.873 225.577L143.743 208.322L113.873 131.911V225.577Z" fill="#E6E6E6"/>
<path d="M66.8659 257.601L105.334 235.397L66.8659 213.194L28.0294 235.397L66.8659 257.601Z" stroke="#EBEBEB" stroke-width="1.08419" stroke-linecap="round" stroke-linejoin="round"/>
<path d="M36.9767 235.417L66.8659 105.69V252.671L36.9767 235.417Z" fill="#E0E0E0"/>
<path d="M66.8659 252.671L96.7357 235.417L66.8659 105.69V252.671Z" fill="#E6E6E6"/>
<path d="M579.544 146.797L784.692 265.229" stroke="#EBEBEB" stroke-width="1.08419" stroke-miterlimit="10" stroke-linecap="round"/>
<path d="M784.692 252.671C784.444 237.804 783.401 222.962 781.568 208.206C779.627 192.175 775.745 165.119 760.315 156.191C744.885 147.263 739.063 163.411 736.831 171.349C733.92 181.655 718.8 175.134 716.704 158.151C714.608 141.169 713.23 87.0577 695.102 76.6353C676.975 66.2129 671.133 91.347 669.075 98.3729C665.019 112.172 653.122 108.368 649.24 99.2269C645.358 90.0855 634.761 87.8535 630.763 100.721C626.765 113.589 624.3 128.359 611.354 120.77C599.981 114.113 605.202 101.983 594.12 96.2186C585.347 91.677 581.271 113.337 581.271 135.249L784.692 252.671Z" fill="#E0E0E0"/>
<path d="M769.787 139.733C769.787 142.1 767.652 142.78 765.051 141.285L749.524 132.28C748.248 131.556 747.156 130.547 746.335 129.332C745.513 128.116 744.984 126.727 744.788 125.273C744.788 122.925 746.923 122.226 749.524 123.74L765.051 132.746C766.327 133.465 767.418 134.47 768.24 135.682C769.062 136.895 769.591 138.281 769.787 139.733Z" fill="#E6E6E6"/>
<path d="M706.049 63.5927C706.049 65.9605 703.933 66.6398 701.313 65.1454L685.786 56.1398C684.507 55.4199 683.413 54.4119 682.591 53.1957C681.769 51.9796 681.242 50.5887 681.051 49.1333C681.051 46.7849 683.166 46.0861 685.786 47.6L701.313 56.6056C702.591 57.3224 703.684 58.3271 704.506 59.5399C705.328 60.7527 705.856 62.1403 706.049 63.5927Z" fill="#E6E6E6"/>
<path d="M655.567 77.6057C655.567 79.9736 653.452 80.6528 650.851 79.1584L635.324 70.1528C634.045 69.4328 632.951 68.4249 632.129 67.2087C631.307 65.9926 630.779 64.6017 630.588 63.1463C630.588 60.7978 632.704 60.0991 635.324 61.613L650.851 70.6186C652.124 71.3389 653.213 72.3448 654.031 73.5573C654.849 74.7697 655.375 76.1555 655.567 77.6057Z" fill="#E6E6E6"/>
<path d="M607.706 82.2444C607.706 84.6122 605.59 85.2915 602.97 83.7776L587.443 74.7915C586.169 74.0669 585.081 73.0573 584.263 71.8418C583.444 70.6262 582.919 69.2376 582.727 67.785C582.727 65.4365 584.842 64.7378 587.443 66.2517L602.97 75.2379C604.247 75.9602 605.34 76.9688 606.161 78.1845C606.983 79.4002 607.512 80.7899 607.706 82.2444Z" fill="#E6E6E6"/>
<path d="M571.004 129.31V1" stroke="#EBEBEB" stroke-width="1.08419" stroke-miterlimit="10" stroke-linecap="round"/>
<path d="M73.7365 413.122C73.7365 413.122 76.9195 384.63 68.0886 357.497C59.7818 331.839 43.0904 318.233 32.9785 314.158C13.8611 306.53 12.1531 327.588 26.4766 342.164C36.9767 352.878 62.2467 374.965 66.5942 412.423L73.7365 413.122Z" fill="#6B65FF"/>
<path opacity="0.7" d="M73.7365 413.122C73.7365 413.122 76.9195 384.63 68.0886 357.497C59.7818 331.839 43.0904 318.233 32.9785 314.158C13.8611 306.53 12.1531 327.588 26.4766 342.164C36.9767 352.878 62.2467 374.965 66.5942 412.423L73.7365 413.122Z" fill="white"/>
<path d="M27.8158 320.038C39.3639 327.802 70.3982 350.219 71.5239 412.909" stroke="#FAFAFA" stroke-width="1.08419" stroke-miterlimit="10" stroke-linecap="round"/>
<path d="M65.6043 432.589C59.6653 403.864 47.5349 393.442 25.8555 382.34C16.5782 377.604 5.70943 372.325 1.7889 366.289C-2.13163 360.253 -0.151956 352.14 13.2011 352.315C37.5977 352.645 65.3908 382.049 69.0979 414.267L65.6043 432.589Z" fill="#6B65FF"/>
<path opacity="0.8" d="M65.6043 432.589C59.6653 403.864 47.5349 393.442 25.8555 382.34C16.5782 377.604 5.70943 372.325 1.7889 366.289C-2.13163 360.253 -0.151956 352.14 13.2011 352.315C37.5977 352.645 65.3908 382.049 69.0979 414.267L65.6043 432.589Z" fill="white"/>
<path d="M11.1438 358.564C29.5625 361.068 58.656 382.534 67.8945 420.672" stroke="#FAFAFA" stroke-width="1.08419" stroke-miterlimit="10" stroke-linecap="round"/>
<path d="M746.05 399.672C753.522 385.309 759.326 345.017 749.718 326.385C740.111 307.753 725.826 309.247 723.614 315.283C721.673 320.854 726.467 330.81 732.678 342.669C738.888 354.527 744.129 379.933 738.248 391.772L746.05 399.672Z" fill="#6B65FF"/>
<path opacity="0.7" d="M746.05 399.672C753.522 385.309 759.326 345.017 749.718 326.385C740.111 307.753 725.826 309.247 723.614 315.283C721.673 320.854 726.467 330.81 732.678 342.669C738.888 354.527 744.129 379.933 738.248 391.772L746.05 399.672Z" fill="white"/>
<path d="M733.046 316.254C739.16 321.164 756.666 351.189 744.42 392.394" stroke="#FAFAFA" stroke-width="1.08419" stroke-miterlimit="10" stroke-linecap="round"/>
<path d="M743.682 414.888C739.179 405.883 729.32 390.977 736.035 380.749C742.75 370.52 749.776 379.565 755.172 372.888C760.568 366.211 754.396 355.42 759.054 349.598C768.059 338.147 774.581 351.442 781.645 349.695C786.75 348.433 792.436 337.118 807.129 338.496C821.821 339.874 821.084 351.519 814.543 356.992C808.002 362.466 800.239 367.919 805.285 376.129C809.749 383.408 812.059 396.858 796.784 402.079C782.189 407.067 789.409 413.394 787.08 420.536C784.751 427.679 770.971 434.452 756.317 428.94L743.682 414.888Z" fill="#6B65FF"/>
<path opacity="0.8" d="M743.682 414.888C739.179 405.883 729.32 390.977 736.035 380.749C742.75 370.52 749.776 379.565 755.172 372.888C760.568 366.211 754.396 355.42 759.054 349.598C768.059 338.147 774.581 351.442 781.645 349.695C786.75 348.433 792.436 337.118 807.129 338.496C821.821 339.874 821.084 351.519 814.543 356.992C808.002 362.466 800.239 367.919 805.285 376.129C809.749 383.408 812.059 396.858 796.784 402.079C782.189 407.067 789.409 413.394 787.08 420.536C784.751 427.679 770.971 434.452 756.317 428.94L743.682 414.888Z" fill="white"/>
<path d="M809.147 345.095C793.232 349.365 755.114 380.341 751.892 419.216" stroke="#FAFAFA" stroke-width="1.08419" stroke-miterlimit="10" stroke-linecap="round"/>
<path d="M797.677 385.911C789.816 384.126 769.845 383.873 762.373 387.503" stroke="#FAFAFA" stroke-width="1.08419" stroke-miterlimit="10" stroke-linecap="round"/>
<path d="M766.817 353.014C766.817 353.014 772.64 364.29 771.805 373.781" stroke="#FAFAFA" stroke-width="1.08419" stroke-miterlimit="10" stroke-linecap="round"/>
<path d="M549.713 242.87C547.111 233.863 542.461 225.579 536.127 218.667C528.64 210.503 519.884 203.602 510.197 198.23C498.949 191.858 486.988 186.836 474.563 183.266C460.876 179.315 446.834 176.715 432.64 175.503C417.978 174.163 403.225 174.163 388.563 175.503C374.375 176.715 360.341 179.315 346.66 183.266C334.228 186.832 322.26 191.855 311.007 198.23C301.319 203.649 292.57 210.596 285.096 218.803C278.767 225.719 274.118 234.001 271.51 243.006C269.191 251.335 269.191 260.14 271.51 268.47C274.097 277.477 278.749 285.757 285.096 292.653C292.575 300.868 301.331 307.821 311.026 313.245C322.266 319.615 334.221 324.632 346.641 328.19C360.327 332.158 374.368 334.784 388.563 336.031C403.226 337.351 417.978 337.351 432.64 336.031C446.843 334.779 460.89 332.146 474.582 328.171C487.002 324.612 498.957 319.596 510.197 313.226C519.896 307.807 528.652 300.853 536.127 292.633C542.465 285.732 547.116 277.454 549.713 268.45C552.035 260.082 552.035 251.239 549.713 242.87Z" fill="#37474F"/>
<path d="M269.763 242.909H551.44V257.271L269.763 256.475V242.909Z" fill="#37474F"/>
<path d="M388.563 162.635L410.573 242.87L346.66 170.476C360.338 166.499 374.373 163.873 388.563 162.635Z" fill="#455A64"/>
<path d="M432.64 162.635L410.631 242.87L388.621 162.596C403.265 161.273 417.999 161.286 432.64 162.635Z" fill="#455A64"/>
<path d="M474.563 170.476L410.631 242.87L432.64 162.596C446.838 163.847 460.879 166.486 474.563 170.476Z" fill="#455A64"/>
<path d="M536.107 205.993C542.438 212.915 547.087 221.204 549.693 230.215L410.65 242.87L536.107 205.993Z" fill="#455A64"/>
<path d="M549.713 230.235C552.012 238.56 552.012 247.354 549.713 255.679L410.65 242.87L549.713 230.235Z" fill="#455A64"/>
<path d="M549.713 255.68C547.112 264.687 542.462 272.971 536.127 279.882L410.65 243.006L549.713 255.68Z" fill="#455A64"/>
<path d="M536.127 279.882C528.651 288.094 519.894 295.042 510.197 300.455L410.611 242.87L536.127 279.882Z" fill="#455A64"/>
<path d="M410.631 242.967L474.582 315.419C460.889 319.371 446.841 321.972 432.64 323.183L410.611 242.909L410.631 242.967Z" fill="#455A64"/>
<path d="M410.611 242.986L432.64 323.26C417.978 324.599 403.225 324.599 388.563 323.26L410.611 242.986Z" fill="#455A64"/>
<path d="M410.573 242.967L388.524 323.241C374.324 322.03 360.276 319.43 346.582 315.477L410.573 242.967Z" fill="#455A64"/>
<path d="M410.573 242.967L346.524 315.419C334.107 311.846 322.153 306.823 310.909 300.455L410.573 242.967Z" fill="#455A64"/>
<path d="M410.553 242.87L285.077 279.746C278.733 272.841 274.082 264.555 271.491 255.544L410.553 242.87Z" fill="#455A64"/>
<path d="M410.553 242.87L271.51 255.679C269.191 247.356 269.191 238.558 271.51 230.235L410.553 242.87Z" fill="#455A64"/>
<path d="M410.553 242.87L271.51 230.157C274.122 221.148 278.77 212.861 285.096 205.935L410.553 242.87Z" fill="#455A64"/>
<path d="M311.007 185.459L410.553 242.87L285.096 205.993C292.572 197.799 301.321 190.866 311.007 185.459Z" fill="#455A64"/>
<path d="M510.197 185.459L410.631 242.87L474.563 170.437C486.993 174.017 498.955 179.06 510.197 185.459Z" fill="#455A64"/>
<path d="M510.197 185.459C519.885 190.86 528.635 197.795 536.107 205.993L410.65 242.87L510.197 185.459Z" fill="#455A64"/>
<path d="M410.573 242.87L310.968 300.377C301.274 294.96 292.518 288.013 285.038 279.804L410.514 242.928L410.573 242.87Z" fill="#455A64"/>
<path d="M346.66 170.476L410.573 242.87L311.007 185.382C322.259 179.019 334.227 174.015 346.66 170.476Z" fill="#455A64"/>
<path d="M410.631 242.967L510.197 300.455C498.954 306.823 487 311.846 474.582 315.419L410.631 242.967Z" fill="#455A64"/>
<path d="M325.427 161.897L404.517 207.546L400.635 143.013C371.542 144.255 346.835 150.465 325.427 161.897Z" fill="#6B65FF"/>
<path opacity="0.2" d="M325.427 161.897L404.517 207.546L400.635 143.013C371.542 144.255 346.835 150.465 325.427 161.897Z" fill="white"/>
<path d="M404.517 207.546V232.467L325.427 186.798V161.897L404.517 207.546Z" fill="#6B65FF"/>
<path opacity="0.1" d="M404.517 207.546V232.467L325.427 186.798V161.897L404.517 207.546Z" fill="black"/>
<path d="M507.053 168.302L416.279 209.254V234.155L507.053 193.203V168.302Z" fill="#6B65FF"/>
<path opacity="0.3" d="M507.053 168.302L416.279 209.254V234.155L507.053 193.203V168.302Z" fill="black"/>
<path d="M507.053 168.302C482.617 151.669 450.03 142.896 412.261 142.78L414.687 183.13L416.279 209.254L507.053 168.302Z" fill="#6B65FF"/>
<path opacity="0.1" d="M507.053 168.302C482.617 151.669 450.03 142.896 412.261 142.78L414.687 183.13L416.279 209.254L507.053 168.302Z" fill="black"/>
<path d="M412.242 142.78V167.681L416.279 234.155V209.254L412.242 142.78Z" fill="#263238"/>
<path d="M434.736 257.213L481.142 301.853C483.743 300.863 486.15 299.912 488.906 298.592C520.872 284.191 537.582 262.608 537.563 240.832V216.183C534.05 206.809 524.385 206.828 514.273 198.579L419.501 241.278L418.549 241.705L434.736 257.213Z" fill="#6B65FF"/>
<path opacity="0.6" d="M434.736 257.213L481.142 301.853C483.743 300.863 486.15 299.912 488.906 298.592C520.872 284.191 537.582 262.608 537.563 240.832V216.183C534.05 206.809 524.385 206.828 514.273 198.579L419.501 241.278L418.549 241.705L434.736 257.213Z" fill="white"/>
<path d="M434.736 232.312L481.142 276.951C483.743 275.961 486.15 275.01 488.906 273.671C542.415 249.508 553.129 205.256 514.311 173.601L419.539 216.299L418.588 216.726L434.736 232.312Z" fill="#6B65FF"/>
<path opacity="0.8" d="M434.736 232.312L481.142 276.951C483.743 275.961 486.15 275.01 488.906 273.671C542.415 249.508 553.129 205.256 514.311 173.601L419.539 216.299L418.588 216.726L434.736 232.312Z" fill="white"/>
<path d="M481.065 301.814V276.893L418.491 216.785V241.686L481.065 301.814Z" fill="#6B65FF"/>
<path opacity="0.6" d="M481.065 301.814V276.893L418.491 216.785V241.686L481.065 301.814Z" fill="white"/>
<path d="M317.198 191.553C303.864 199.957 289.055 205.256 283.66 215.465V240.385C283.66 253.37 289.696 266.529 302.214 278.562C319.682 295.312 347.339 307.151 380.198 311.867C410.607 316.356 441.631 314.097 471.069 305.249V280.348L430.214 265.985L406.225 242.87L317.198 191.553Z" fill="#6B65FF"/>
<path opacity="0.6" d="M317.198 191.553C303.864 199.957 289.055 205.256 283.66 215.465V240.385C283.66 253.37 289.696 266.529 302.214 278.562C319.682 295.312 347.339 307.151 380.198 311.867C410.607 316.356 441.631 314.097 471.069 305.249V280.348L430.214 265.985L406.225 242.87L317.198 191.553Z" fill="black"/>
<path d="M317.198 166.652C278.885 190.758 272.713 225.305 302.214 253.642C319.682 270.411 347.339 282.23 380.198 286.966C410.607 291.445 441.63 289.186 471.069 280.348L430.214 241.084L406.225 218.046L317.198 166.652Z" fill="#6B65FF"/>
<path opacity="0.3" d="M317.198 166.652C278.885 190.758 272.713 225.305 302.214 253.642C319.682 270.411 347.339 282.23 380.198 286.966C410.607 291.445 441.63 289.186 471.069 280.348L430.214 241.084L406.225 218.046L317.198 166.652Z" fill="black"/>
<path d="M761.752 438.217C759.15 429.21 754.5 420.927 748.166 414.015C740.695 405.804 731.945 398.856 722.255 393.442C711.007 387.07 699.046 382.047 686.621 378.478C672.934 374.527 658.893 371.927 644.698 370.714C630.037 369.375 615.283 369.375 600.621 370.714C586.434 371.929 572.399 374.529 558.718 378.478C546.293 382.047 534.332 387.07 523.084 393.442C513.387 398.855 504.63 405.802 497.154 414.015C490.826 420.931 486.176 429.213 483.568 438.217C481.249 446.547 481.249 455.352 483.568 463.681C486.156 472.689 490.807 480.969 497.154 487.864C504.633 496.079 513.389 503.033 523.084 508.457C534.327 514.82 546.282 519.836 558.699 523.402C572.395 527.343 586.442 529.943 600.641 531.165C615.304 532.485 630.055 532.485 644.718 531.165C658.917 529.945 672.964 527.345 686.66 523.402C699.083 519.845 711.039 514.822 722.274 508.437C731.979 503.026 740.742 496.079 748.224 487.864C754.557 480.959 759.207 472.682 761.81 463.681C764.101 455.345 764.081 446.543 761.752 438.217Z" fill="#37474F"/>
<path d="M481.802 438.198H763.479V452.56L481.802 451.765V438.198Z" fill="#37474F"/>
<path d="M600.602 357.924L622.631 438.198L558.699 365.765C572.377 361.79 586.412 359.164 600.602 357.924Z" fill="#455A64"/>
<path d="M644.679 357.924L622.67 438.198L600.641 357.924C615.29 356.587 630.03 356.587 644.679 357.924Z" fill="#455A64"/>
<path d="M686.601 365.765L622.67 438.198L644.679 357.924C658.876 359.162 672.917 361.788 686.601 365.765Z" fill="#455A64"/>
<path d="M748.146 401.302C754.481 408.221 759.131 416.511 761.732 425.524L622.689 438.237L748.146 401.302Z" fill="#455A64"/>
<path d="M761.752 425.524C764.061 433.848 764.061 442.644 761.752 450.969L622.708 438.237L761.752 425.524Z" fill="#455A64"/>
<path d="M761.752 450.969C759.145 459.974 754.495 468.256 748.166 475.171L622.689 438.295L761.752 450.969Z" fill="#455A64"/>
<path d="M748.185 475.171C740.693 483.374 731.931 490.321 722.236 495.744L622.65 438.237L748.185 475.171Z" fill="#455A64"/>
<path d="M622.67 438.256L686.621 510.708C672.925 514.652 658.878 517.252 644.679 518.472L622.65 438.198L622.67 438.256Z" fill="#455A64"/>
<path d="M622.65 438.275L644.679 518.472C630.017 519.801 615.264 519.801 600.602 518.472L622.65 438.275Z" fill="#455A64"/>
<path d="M622.631 438.256L600.602 518.472C586.403 517.25 572.356 514.65 558.66 510.708L622.631 438.256Z" fill="#455A64"/>
<path d="M622.631 438.256L558.582 510.708C546.167 507.128 534.214 502.106 522.968 495.744L622.631 438.256Z" fill="#455A64"/>
<path d="M622.592 438.237L497.115 475.113C490.772 468.208 486.121 459.922 483.529 450.91L622.592 438.237Z" fill="#455A64"/>
<path d="M622.592 438.237L483.549 450.969C481.23 442.646 481.23 433.847 483.549 425.524L622.592 438.237Z" fill="#455A64"/>
<path d="M622.592 438.217L483.549 425.505C486.156 416.494 490.805 408.205 497.135 401.283L622.592 438.217Z" fill="#455A64"/>
<path d="M523.065 380.671L622.592 438.14L497.135 401.263C504.609 393.044 513.366 386.09 523.065 380.671Z" fill="#455A64"/>
<path d="M722.236 380.671L622.67 438.14L686.601 365.707C699.029 369.268 710.991 374.291 722.236 380.671Z" fill="#455A64"/>
<path d="M722.236 380.671C731.926 386.078 740.676 393.019 748.146 401.224L622.708 438.101L722.236 380.671Z" fill="#455A64"/>
<path d="M622.631 438.217L523.045 495.744C513.355 490.321 504.6 483.374 497.115 475.171L622.592 438.295L622.631 438.217Z" fill="#455A64"/>
<path d="M558.699 365.765L622.631 438.198L523.065 380.671C534.312 374.311 546.274 369.308 558.699 365.765Z" fill="#455A64"/>
<path d="M622.67 438.256L722.236 495.744C710.992 502.113 699.039 507.135 686.621 510.708L622.67 438.256Z" fill="#455A64"/>
<path d="M498.571 406.698V447.029C497.549 443.344 497.027 439.538 497.018 435.714V406.698H498.571Z" fill="#6B65FF"/>
<path opacity="0.3" d="M498.571 406.698V447.029C497.549 443.344 497.027 439.538 497.018 435.714V406.698H498.571Z" fill="black"/>
<path d="M622.592 406.736L498.571 418.071C496.513 410.648 496.513 402.805 498.571 395.382L622.592 406.736Z" fill="#6B65FF"/>
<path d="M622.592 406.698L498.571 395.344C500.902 387.307 505.053 379.915 510.701 373.742L622.592 406.698Z" fill="#6B65FF"/>
<path d="M533.817 355.44L622.592 406.698L510.702 373.703C517.376 366.413 525.181 360.246 533.817 355.44Z" fill="#6B65FF"/>
<path d="M565.608 342.087L622.631 406.678L533.817 355.44C543.849 349.749 554.521 345.266 565.608 342.087Z" fill="#6B65FF"/>
<path d="M602.989 335.099L622.631 406.678L565.608 342.086C577.809 338.537 590.33 336.197 602.989 335.099Z" fill="#6B65FF"/>
<path d="M642.408 335.099L622.67 406.678L603.028 335.099C616.127 333.892 629.309 333.892 642.408 335.099Z" fill="#6B65FF"/>
<path d="M679.692 342.086L622.67 406.678L642.408 335.099C655.035 336.203 667.523 338.543 679.692 342.086Z" fill="#6B65FF"/>
<g opacity="0.2">
<path opacity="0.2" d="M622.592 406.736L498.571 418.071C496.513 410.648 496.513 402.805 498.571 395.382L622.592 406.736Z" fill="white"/>
<path opacity="0.2" d="M622.592 406.698L498.571 395.344C500.902 387.307 505.053 379.915 510.701 373.742L622.592 406.698Z" fill="white"/>
<path opacity="0.2" d="M533.817 355.44L622.592 406.698L510.701 373.703C517.376 366.413 525.181 360.247 533.817 355.44Z" fill="white"/>
<path opacity="0.2" d="M565.608 342.087L622.631 406.678L533.817 355.44C543.85 349.749 554.521 345.266 565.608 342.087Z" fill="white"/>
<path opacity="0.2" d="M602.989 335.099L622.631 406.678L565.608 342.087C577.809 338.537 590.33 336.197 602.989 335.099Z" fill="white"/>
<path opacity="0.2" d="M642.408 335.099L622.67 406.678L603.028 335.099C616.127 333.892 629.309 333.892 642.408 335.099Z" fill="white"/>
<path opacity="0.2" d="M679.692 342.087L622.67 406.678L642.408 335.099C655.035 336.203 667.523 338.544 679.692 342.087Z" fill="white"/>
</g>
<path d="M727.806 426.068L709.193 443.535L695.044 456.908L681.555 469.601L679.75 471.29V500.267C690.836 497.09 701.507 492.614 711.542 486.933C720.188 482.085 727.999 475.879 734.677 468.553C740.323 462.399 744.463 455.017 746.768 446.99C747.797 443.306 748.325 439.5 748.34 435.675V406.717L727.806 426.068Z" fill="#6B65FF"/>
<path opacity="0.3" d="M727.806 426.068L709.193 443.535L695.044 456.908L681.555 469.601L679.75 471.29V500.267C690.836 497.09 701.507 492.614 711.542 486.933C720.188 482.085 727.999 475.879 734.677 468.553C740.323 462.399 744.463 455.017 746.768 446.99C747.797 443.306 748.325 439.5 748.34 435.675V406.717L727.806 426.068Z" fill="black"/>
<path d="M734.599 373.781C740.24 379.959 744.39 387.349 746.729 395.382L622.689 406.736L734.599 373.781Z" fill="#6B65FF"/>
<path d="M748.282 406.756C748.266 410.587 747.738 414.4 746.71 418.091L709.135 414.636L622.689 406.717L727.748 397.013L746.71 395.286C747.749 399.021 748.277 402.879 748.282 406.756Z" fill="#6B65FF"/>
<path d="M746.71 418.091C744.4 426.116 740.261 433.497 734.618 439.654L694.986 428.008L622.689 406.659L709.135 414.578L746.71 418.091Z" fill="#6B65FF"/>
<path d="M734.618 439.653C727.941 446.979 720.129 453.185 711.483 458.033L681.497 440.682L622.708 406.756L695.005 428.105L734.618 439.653Z" fill="#6B65FF"/>
<path d="M711.483 355.44L622.67 406.717L679.692 342.125C690.775 345.3 701.446 349.769 711.483 355.44Z" fill="#6B65FF"/>
<path d="M711.483 355.44C720.122 360.275 727.926 366.468 734.599 373.781L622.689 406.775L711.483 355.44Z" fill="#6B65FF"/>
<path d="M711.483 458.033C701.448 463.708 690.777 468.177 679.692 471.348L622.708 406.756L681.497 440.682L711.483 458.033Z" fill="#6B65FF"/>
<g opacity="0.2">
<path opacity="0.2" d="M734.599 373.781C740.24 379.96 744.39 387.349 746.729 395.382L622.689 406.737L734.599 373.781Z" fill="white"/>
<path opacity="0.2" d="M748.282 406.756C748.266 410.587 747.738 414.4 746.71 418.091L709.135 414.636L622.689 406.717L727.748 397.013L746.71 395.286C747.748 399.021 748.277 402.879 748.282 406.756Z" fill="white"/>
<path opacity="0.2" d="M746.71 418.091C744.4 426.116 740.261 433.497 734.618 439.654L694.986 428.008L622.689 406.659L709.135 414.578L746.71 418.091Z" fill="white"/>
<path opacity="0.2" d="M734.618 439.653C727.941 446.979 720.129 453.185 711.483 458.033L681.497 440.682L622.708 406.756L695.005 428.105L734.618 439.653Z" fill="white"/>
<path opacity="0.2" d="M711.483 355.44L622.67 406.717L679.692 342.125C690.775 345.3 701.446 349.769 711.483 355.44Z" fill="white"/>
<path opacity="0.2" d="M711.483 355.44C720.122 360.275 727.926 366.468 734.599 373.781L622.689 406.775L711.483 355.44Z" fill="white"/>
<path opacity="0.2" d="M711.483 458.033C701.448 463.708 690.777 468.177 679.692 471.348L622.708 406.756L681.497 440.682L711.483 458.033Z" fill="white"/>
</g>
<path d="M679.711 471.367V500.344L622.631 435.675V406.678L679.711 471.367Z" fill="#263238"/>
<path d="M622.631 435.675L498.571 447.068V418.071L622.631 406.678V435.675Z" fill="#6B65FF"/>
<path opacity="0.1" d="M622.631 435.675L498.571 447.068V418.071L622.631 406.678V435.675Z" fill="black"/>
<path d="M337.693 438.217C335.092 429.21 330.442 420.927 324.107 414.015C316.634 405.807 307.884 398.86 298.197 393.442C286.943 387.066 274.976 382.044 262.543 378.478C248.863 374.527 234.828 371.927 220.64 370.714C205.978 369.375 191.225 369.375 176.563 370.714C162.369 371.929 148.328 374.529 134.641 378.478C122.202 382.044 110.228 387.067 98.9677 393.442C89.2774 398.856 80.5274 405.804 73.0573 414.015C66.7228 420.927 62.0729 429.21 59.4712 438.217C57.1709 446.549 57.1709 455.349 59.4712 463.681C62.0685 472.685 66.719 480.963 73.0573 487.864C80.5259 496.082 89.276 503.036 98.9677 508.457C110.208 514.827 122.163 519.843 134.582 523.402C148.278 527.345 162.325 529.945 176.524 531.165C191.187 532.485 205.939 532.485 220.601 531.165C234.801 529.945 248.848 527.345 262.543 523.402C274.967 519.845 286.923 514.822 298.158 508.437C307.863 503.028 316.627 496.08 324.107 487.864C330.446 480.963 335.096 472.685 337.693 463.681C339.994 455.349 339.994 446.549 337.693 438.217Z" fill="#37474F"/>
<path d="M57.7244 438.198H339.401V452.56L57.7244 451.765V438.198Z" fill="#37474F"/>
<path d="M176.602 357.924L198.611 438.198L134.68 365.765C148.364 361.79 162.406 359.164 176.602 357.924Z" fill="#455A64"/>
<path d="M220.601 357.924L198.592 438.198L176.602 357.924C191.238 356.589 205.965 356.589 220.601 357.924Z" fill="#455A64"/>
<path d="M262.504 365.765L198.592 438.198L220.601 357.924C234.792 359.162 248.827 361.788 262.504 365.765Z" fill="#455A64"/>
<path d="M324.107 401.302C330.442 408.221 335.092 416.511 337.693 425.524L198.631 438.237L324.107 401.302Z" fill="#455A64"/>
<path d="M337.693 425.524C339.993 433.85 339.993 442.643 337.693 450.969L198.631 438.237L337.693 425.524Z" fill="#455A64"/>
<path d="M337.693 450.969C335.092 459.976 330.442 468.26 324.107 475.171L198.631 438.295L337.693 450.969Z" fill="#455A64"/>
<path d="M324.107 475.171C316.622 483.374 307.867 490.321 298.177 495.744L198.573 438.237L324.107 475.171Z" fill="#455A64"/>
<path d="M198.592 438.256L262.543 510.708C248.848 514.652 234.801 517.252 220.601 518.472L198.553 438.198L198.592 438.256Z" fill="#455A64"/>
<path d="M198.553 438.275L220.601 518.472C205.965 519.797 191.238 519.797 176.602 518.472L198.553 438.275Z" fill="#455A64"/>
<path d="M198.534 438.256L176.602 518.472C162.403 517.252 148.356 514.651 134.66 510.708L198.534 438.256Z" fill="#455A64"/>
<path d="M198.534 438.256L134.485 510.708C122.101 507.128 110.18 502.106 98.9677 495.744L198.534 438.256Z" fill="#455A64"/>
<path d="M198.514 438.237L73.0379 475.113C66.7028 468.202 62.0529 459.918 59.4518 450.91L198.514 438.237Z" fill="#455A64"/>
<path d="M198.514 438.237L59.4518 450.969C57.1521 442.643 57.1521 433.85 59.4518 425.524L198.514 438.237Z" fill="#455A64"/>
<path d="M198.514 438.217L59.4518 425.505C62.0534 416.491 66.7031 408.202 73.0379 401.283L198.514 438.217Z" fill="#455A64"/>
<path d="M98.9677 380.671L198.514 438.14L73.0572 401.263C80.5245 393.044 89.2748 386.09 98.9677 380.671Z" fill="#455A64"/>
<path d="M298.158 380.671L198.592 438.14L262.504 365.707C274.94 369.265 286.908 374.288 298.158 380.671Z" fill="#455A64"/>
<path d="M298.158 380.671C307.864 386.103 316.627 393.07 324.107 401.302L198.65 438.178L298.158 380.671Z" fill="#455A64"/>
<path d="M198.534 438.217L98.9677 495.744C89.2743 490.326 80.5186 483.379 73.0378 475.171L198.514 438.295L198.534 438.217Z" fill="#455A64"/>
<path d="M134.602 365.765L198.534 438.198L98.9677 380.671C110.215 374.311 122.177 369.308 134.602 365.765Z" fill="#455A64"/>
<path d="M198.592 438.256L298.158 495.744C286.915 502.113 274.961 507.135 262.543 510.708L198.592 438.256Z" fill="#455A64"/>
<path d="M236.012 388.434L252.063 370.229C252.063 348.88 225.977 348.355 214.449 347.327C202.92 346.298 183.143 339.68 183.143 363.979L188.655 384.087C204.57 383.064 220.548 384.531 236.012 388.434Z" fill="#6B65FF"/>
<path opacity="0.6" d="M236.012 388.434L252.063 370.229C252.063 348.88 225.977 348.355 214.449 347.327C202.92 346.298 183.143 339.68 183.143 363.979L188.655 384.087C204.57 383.064 220.548 384.531 236.012 388.434Z" fill="white"/>
<path d="M236.012 359.845L252.063 341.66C229.588 335.81 206.303 333.699 183.143 335.41L188.655 355.44C204.573 354.436 220.551 355.923 236.012 359.845Z" fill="#6B65FF"/>
<path opacity="0.8" d="M236.012 359.845L252.063 341.66C229.588 335.81 206.303 333.699 183.143 335.41L188.655 355.44C204.573 354.436 220.551 355.923 236.012 359.845Z" fill="white"/>
<path d="M188.655 355.517V384.125L183.143 364.018V335.41L188.655 355.517Z" fill="#6B65FF"/>
<path d="M252.063 341.66L236.012 359.845V388.473L252.063 370.268V341.66Z" fill="#6B65FF"/>
<g opacity="0.6">
<path opacity="0.6" d="M188.655 355.517V384.125L183.143 364.018V335.41L188.655 355.517Z" fill="white"/>
<path opacity="0.6" d="M252.063 341.66L236.012 359.845V388.473L252.063 370.268V341.66Z" fill="white"/>
</g>
<path d="M243.853 362.155V390.763C250.55 392.925 257.013 395.753 263.145 399.206C268.496 402.244 273.412 405.992 277.76 410.346L309.24 401.088C302.981 394.699 295.853 389.224 288.065 384.824C279.467 379.894 270.268 359.903 243.853 362.155Z" fill="#6B65FF"/>
<path opacity="0.6" d="M243.853 362.155V390.763C250.55 392.925 257.013 395.753 263.145 399.206C268.496 402.244 273.412 405.992 277.76 410.346L309.24 401.088C302.981 394.699 295.853 389.224 288.065 384.824C279.467 379.894 270.268 359.903 243.853 362.155Z" fill="black"/>
<path d="M259.904 343.989L243.853 362.155C250.556 364.3 257.021 367.129 263.145 370.598C268.496 373.636 273.412 377.383 277.76 381.738L309.24 372.48C302.991 366.08 295.861 360.603 288.065 356.216C279.142 351.145 269.701 347.046 259.904 343.989Z" fill="#6B65FF"/>
<path opacity="0.3" d="M259.904 343.989L243.853 362.155C250.556 364.3 257.021 367.129 263.145 370.598C268.496 373.636 273.412 377.383 277.76 381.738L309.24 372.48C302.991 366.08 295.861 360.603 288.065 356.216C279.142 351.145 269.701 347.046 259.904 343.989Z" fill="black"/>
<path d="M277.76 381.738L309.24 372.461V401.089L277.76 410.347V381.738Z" fill="#6B65FF"/>
<path opacity="0.6" d="M277.76 381.738L309.24 372.461V401.089L277.76 410.347V381.738Z" fill="black"/>
<path d="M325.039 407.125H314.403C314.015 406.62 313.685 406.115 313.297 405.611L281.777 386.202V414.83C288.493 423.467 291.035 432.899 289.288 442.157L324.107 445.398C324.697 442.512 324.989 439.572 324.981 436.626L325.039 407.125Z" fill="#6B65FF"/>
<path opacity="0.6" d="M325.039 407.125H314.403C314.015 406.62 313.685 406.115 313.297 405.611L281.777 386.202V414.83C288.493 423.467 291.035 432.899 289.288 442.157L324.107 445.398C324.697 442.512 324.989 439.572 324.981 436.626L325.039 407.125Z" fill="black"/>
<path d="M289.269 413.665L324.107 416.79C326.941 403.34 323.35 389.502 313.277 377.002L281.758 386.26C288.473 394.897 291.113 404.349 289.269 413.665Z" fill="#6B65FF"/>
<path opacity="0.3" d="M289.269 413.665L324.107 416.79C326.941 403.34 323.35 389.502 313.277 377.002L281.758 386.26C288.473 394.897 291.113 404.349 289.269 413.665Z" fill="black"/>
<path d="M324.107 416.79V445.418L289.269 442.215V413.607L324.107 416.79Z" fill="#6B65FF"/>
<path opacity="0.6" d="M324.107 416.79V445.418L289.269 442.215V413.607L324.107 416.79Z" fill="black"/>
<path d="M179.96 384.941V356.313C160.551 347.366 124.412 356.449 112.301 383.097L137.222 397.498C150.608 390.803 165.08 386.551 179.96 384.941Z" fill="#6B65FF"/>
<path opacity="0.3" d="M179.96 384.941V356.313C160.551 347.366 124.412 356.449 112.301 383.097L137.222 397.498C150.608 390.803 165.08 386.551 179.96 384.941Z" fill="black"/>
<path d="M179.96 356.313L174.428 336.147C150.963 338.787 129.478 345.25 112.321 354.489L137.241 368.87C150.621 362.178 165.087 357.926 179.96 356.313Z" fill="#6B65FF"/>
<path opacity="0.1" d="M179.96 356.313L174.428 336.147C150.963 338.787 129.478 345.25 112.321 354.489L137.241 368.87C150.621 362.178 165.087 357.926 179.96 356.313Z" fill="black"/>
<path d="M137.222 368.87V397.498L112.301 383.097V354.489L137.222 368.87Z" fill="#263238"/>
<path d="M111.156 372.48L106.032 386.668C89.2828 397.032 78.7051 409.512 74.3576 422.574L109.293 425.757C112.495 416.81 119.793 408.289 131.089 401.108V372.48H111.156Z" fill="#6B65FF"/>
<path opacity="0.3" d="M111.156 372.48L106.032 386.668C89.2828 397.032 78.7051 409.512 74.3576 422.574L109.293 425.757C112.495 416.81 119.793 408.289 131.089 401.108V372.48H111.156Z" fill="black"/>
<path d="M131.011 372.48L106.032 358.06C89.2828 368.404 78.7051 380.904 74.3576 393.946L109.293 397.149C112.418 388.201 119.715 379.661 131.011 372.48Z" fill="#6B65FF"/>
<path opacity="0.1" d="M131.011 372.48L106.032 358.06C89.2828 368.404 78.7051 380.904 74.3576 393.946L109.293 397.149C112.418 388.201 119.715 379.661 131.011 372.48Z" fill="black"/>
<path d="M74.3576 393.946V422.574L109.215 425.757V397.148L74.3576 393.946Z" fill="#263238"/>
<path d="M107.837 430.784V402.156L97.4732 401.224L72.0867 407.843V436.432C72.2493 447.791 76.3674 458.738 83.7319 467.388L115.251 458.13C108.672 449.494 106.11 440.042 107.837 430.784Z" fill="#6B65FF"/>
<path opacity="0.3" d="M107.837 430.784V402.156L97.4732 401.224L72.0867 407.843V436.432C72.2493 447.791 76.3674 458.738 83.7319 467.388L115.251 458.13C108.672 449.494 106.11 440.042 107.837 430.784Z" fill="black"/>
<path d="M83.8484 438.78L115.368 429.503V458.13L83.8484 467.388V438.78Z" fill="#263238"/>
<path d="M107.857 402.156L72.9214 398.973C70.0877 412.443 73.6783 426.262 83.7513 438.78L115.271 429.503C108.672 420.866 106.11 411.414 107.857 402.156Z" fill="#6B65FF"/>
<path opacity="0.1" d="M107.857 402.156L72.9214 398.973C70.0877 412.443 73.6783 426.262 83.7513 438.78L115.271 429.503C108.672 420.866 106.11 411.414 107.857 402.156Z" fill="black"/>
<path d="M145.141 467.35C130.371 458.829 122.995 447.669 122.995 436.509V407.843H274.13V436.451C274.13 447.63 266.755 458.79 251.985 467.311C222.484 484.39 174.661 484.39 145.141 467.35Z" fill="#37474F"/>
<path d="M198.573 451.512C240.302 451.512 274.13 431.978 274.13 407.882C274.13 383.785 240.302 364.251 198.573 364.251C156.843 364.251 123.015 383.785 123.015 407.882C123.015 431.978 156.843 451.512 198.573 451.512Z" fill="#455A64"/>
<path d="M137.222 475.54V471.891L87.866 443.302V471.891C94.1275 478.286 101.263 483.762 109.06 488.156C117.983 493.227 127.424 497.326 137.222 500.383L153.253 482.217C147.74 480.422 142.379 478.19 137.222 475.54Z" fill="#6B65FF"/>
<path opacity="0.3" d="M137.222 475.54V471.891L87.866 443.302V471.891C94.1275 478.286 101.263 483.762 109.06 488.156C117.983 493.227 127.424 497.326 137.222 500.383L153.253 482.217C147.74 480.422 142.379 478.19 137.222 475.54Z" fill="black"/>
<path d="M133.903 445.166C128.546 442.135 123.623 438.394 119.269 434.044L87.7883 443.302C94.0548 449.691 101.19 455.167 108.983 459.567C117.91 464.63 127.35 468.729 137.144 471.794L153.176 453.608C146.479 451.463 140.021 448.634 133.903 445.166Z" fill="#6B65FF"/>
<path opacity="0.1" d="M133.903 445.166C128.546 442.135 123.623 438.394 119.269 434.044L87.7883 443.302C94.0548 449.691 101.19 455.167 108.983 459.567C117.91 464.63 127.35 468.729 137.144 471.794L153.176 453.608C146.479 451.463 140.021 448.634 133.903 445.166Z" fill="black"/>
<path d="M137.222 500.402V471.794L153.254 453.608V482.236L137.222 500.402Z" fill="#263238"/>
<path d="M145.063 474.104V502.731C167.538 508.581 190.822 510.692 213.983 508.981V480.373L145.063 474.104Z" fill="#6B65FF"/>
<path opacity="0.1" d="M145.063 474.104V502.731C167.538 508.581 190.822 510.692 213.983 508.981V480.373L145.063 474.104Z" fill="black"/>
<path d="M161.075 455.918L145.024 474.104C167.5 479.95 190.783 482.068 213.944 480.373L208.471 460.246C192.543 461.279 176.552 459.819 161.075 455.918Z" fill="#6B65FF"/>
<path opacity="0.2" d="M161.075 455.918L145.024 474.104C167.5 479.95 190.783 482.068 213.944 480.373L208.471 460.246C192.543 461.279 176.552 459.819 161.075 455.918Z" fill="white"/>
<path d="M266.114 471.891L291.113 486.331C307.862 475.986 318.44 463.487 322.788 450.425V421.817L287.852 447.242C284.708 456.19 277.41 464.729 266.114 471.891Z" fill="#6B65FF"/>
<path opacity="0.1" d="M266.114 471.891L291.113 486.331C307.862 475.986 318.44 463.487 322.788 450.425V421.817L287.852 447.242C284.708 456.19 277.41 464.729 266.114 471.891Z" fill="black"/>
<path d="M266.114 443.283L291.113 457.723C307.862 447.359 318.44 434.879 322.788 421.817L287.852 418.634C284.708 427.581 277.41 436.102 266.114 443.283Z" fill="#6B65FF"/>
<path opacity="0.2" d="M266.114 443.283L291.113 457.723C307.862 447.359 318.44 434.879 322.788 421.817L287.852 418.634C284.708 427.581 277.41 436.102 266.114 443.283Z" fill="white"/>
<path d="M291.093 457.723V486.331L266.114 471.911V443.283L291.093 457.723Z" fill="#6B65FF"/>
<path opacity="0.3" d="M291.093 457.723V486.331L266.114 471.911V443.283L291.093 457.723Z" fill="black"/>
<path d="M222.697 479.655V487.418C220.854 487.709 219.029 487.962 217.166 488.175L222.697 508.321C245.308 505.798 266.93 499.684 284.805 490.019V461.313L222.697 479.655Z" fill="#6B65FF"/>
<path opacity="0.1" d="M222.697 479.655V487.418C220.854 487.709 219.029 487.962 217.166 488.175L222.697 508.321C245.308 505.798 266.93 499.684 284.805 490.019V461.313L222.697 479.655Z" fill="black"/>
<path d="M217.166 459.47L222.697 479.654C245.308 477.131 266.93 471.037 284.805 461.372L259.826 446.932C246.474 453.639 232.024 457.886 217.166 459.47Z" fill="#6B65FF"/>
<path opacity="0.2" d="M217.166 459.47L222.697 479.654C245.308 477.131 266.93 471.037 284.805 461.372L259.826 446.932C246.474 453.639 232.024 457.886 217.166 459.47Z" fill="white"/>
<path d="M222.697 479.596V508.205L217.166 488.097V459.47L222.697 479.596Z" fill="#6B65FF"/>
<path opacity="0.3" d="M222.697 479.596V508.205L217.166 488.097V459.47L222.697 479.596Z" fill="black"/>
<path d="M707.058 288.169C706.989 286.907 706.625 285.679 705.994 284.583C705.364 283.488 704.485 282.556 703.429 281.862L650.87 251.526C648.929 250.362 647.241 251.313 647.241 253.642V304.434C647.307 305.697 647.67 306.926 648.3 308.022C648.931 309.118 649.812 310.05 650.87 310.742L672.88 323.435L679.828 351.558C679.805 352.073 679.987 352.575 680.335 352.956C680.682 353.336 681.167 353.563 681.681 353.586C682.196 353.609 682.699 353.427 683.079 353.079C683.46 352.732 683.686 352.247 683.71 351.733L690.076 333.353L703.526 341.116C705.467 342.281 707.155 341.33 707.155 339.02L707.058 288.169Z" fill="#6B65FF"/>
<path opacity="0.5" d="M707.058 288.169C706.989 286.907 706.625 285.679 705.994 284.583C705.364 283.488 704.485 282.556 703.429 281.862L650.87 251.526C648.929 250.362 647.241 251.313 647.241 253.642V304.434C647.307 305.697 647.67 306.926 648.3 308.022C648.931 309.118 649.812 310.05 650.87 310.742L672.88 323.435L679.828 351.558C679.805 352.073 679.987 352.575 680.335 352.956C680.682 353.336 681.167 353.563 681.681 353.586C682.196 353.609 682.699 353.427 683.079 353.079C683.46 352.732 683.686 352.247 683.71 351.733L690.076 333.353L703.526 341.116C705.467 342.281 707.155 341.33 707.155 339.02L707.058 288.169Z" fill="white"/>
<path d="M667.154 274.661C668.227 275.271 669.218 276.015 670.104 276.874C670.896 277.645 671.605 278.497 672.22 279.416C672.753 280.23 673.189 281.102 673.52 282.017C673.794 282.794 673.97 283.603 674.044 284.424C674.044 285.258 674.141 286.132 674.141 287.044C674.141 287.956 674.141 288.791 674.044 289.567C673.997 290.192 673.818 290.801 673.52 291.352C673.23 291.862 672.769 292.254 672.22 292.459C671.527 292.649 670.797 292.649 670.104 292.459C669.06 292.217 668.063 291.804 667.154 291.236C666.076 290.632 665.079 289.896 664.185 289.043C663.389 288.294 662.686 287.454 662.088 286.539C661.074 285.039 660.441 283.313 660.245 281.512C660.245 280.678 660.245 279.804 660.245 278.892C660.245 277.98 660.245 277.145 660.245 276.388C660.305 275.757 660.489 275.143 660.788 274.583C661.069 274.066 661.533 273.671 662.088 273.477C662.767 273.263 663.489 273.23 664.185 273.38C665.242 273.629 666.247 274.062 667.154 274.661ZM685.709 286.481C685.907 286.335 686.142 286.248 686.388 286.229C686.741 286.252 687.082 286.365 687.378 286.559L690.153 288.169C690.472 288.35 690.749 288.595 690.968 288.888C691.15 289.136 691.252 289.434 691.26 289.742C691.267 289.806 691.267 289.871 691.26 289.936C691.226 290.008 691.18 290.073 691.124 290.13L668.26 307.015C668.061 307.163 667.827 307.257 667.581 307.287C667.225 307.264 666.883 307.143 666.591 306.938L663.816 305.346C663.493 305.163 663.215 304.911 663.001 304.609C662.814 304.369 662.705 304.078 662.69 303.774C662.675 303.704 662.675 303.631 662.69 303.56C662.717 303.485 662.764 303.418 662.826 303.366L685.709 286.481ZM669.6 286.481C669.627 286.197 669.627 285.911 669.6 285.627V283.123C669.626 282.82 669.626 282.515 669.6 282.211C669.537 281.529 669.332 280.868 668.998 280.27C668.551 279.543 667.913 278.953 667.154 278.562C666.261 278.038 665.64 277.902 665.213 278.135C665.03 278.283 664.881 278.469 664.777 278.68C664.673 278.891 664.616 279.123 664.612 279.358C664.612 279.533 664.612 279.804 664.612 280.212C664.612 280.62 664.612 281.008 664.612 281.435C664.612 281.862 664.612 282.289 664.612 282.696C664.612 283.104 664.612 283.414 664.612 283.628C664.684 284.308 664.888 284.967 665.213 285.569C665.689 286.307 666.361 286.898 667.154 287.277C668.047 287.801 668.668 287.937 668.998 287.704C669.173 287.563 669.316 287.386 669.417 287.185C669.518 286.984 669.573 286.764 669.58 286.539L669.6 286.481ZM687.184 302.415C688.262 303.026 689.26 303.769 690.153 304.628C690.94 305.399 691.643 306.251 692.249 307.17C692.797 307.975 693.235 308.85 693.55 309.771C693.82 310.551 694.002 311.358 694.093 312.178C694.093 313.012 694.093 313.886 694.093 314.798C694.093 315.71 694.093 316.545 694.093 317.321C694.033 317.947 693.849 318.554 693.55 319.107C693.417 319.368 693.234 319.6 693.011 319.79C692.787 319.98 692.529 320.124 692.249 320.213C691.565 320.414 690.838 320.414 690.153 320.213C689.103 319.971 688.1 319.558 687.184 318.99C686.112 318.387 685.12 317.65 684.234 316.797C683.438 316.044 682.728 315.204 682.118 314.293C681.581 313.482 681.145 312.609 680.818 311.693C680.546 310.915 680.37 310.106 680.294 309.286C680.294 308.432 680.294 307.559 680.294 306.646C680.294 305.734 680.294 304.9 680.294 304.143C680.338 303.511 680.517 302.895 680.818 302.338C681.103 301.824 681.565 301.43 682.118 301.231C682.813 301.06 683.539 301.06 684.234 301.231C685.282 301.469 686.281 301.889 687.184 302.474V302.415ZM689.649 314.293C689.664 314.009 689.664 313.724 689.649 313.439V310.994C689.649 310.606 689.649 310.295 689.649 310.101C689.567 309.423 689.364 308.765 689.047 308.16C688.565 307.427 687.895 306.837 687.106 306.452C686.213 305.928 685.592 305.792 685.262 306.025C685.079 306.173 684.93 306.359 684.826 306.57C684.722 306.781 684.665 307.013 684.661 307.248C684.641 307.532 684.641 307.818 684.661 308.102C684.661 308.49 684.661 308.898 684.661 309.325C684.661 309.752 684.661 310.179 684.661 310.606C684.642 310.91 684.642 311.214 684.661 311.518C684.721 312.2 684.926 312.862 685.262 313.459C685.704 314.19 686.343 314.782 687.106 315.167C687.999 315.691 688.62 315.827 689.047 315.594C689.229 315.441 689.377 315.251 689.481 315.037C689.584 314.823 689.641 314.589 689.649 314.352V314.293Z" fill="#FAFAFA"/>
<path d="M479.687 93.4237C479.616 92.162 479.251 90.9343 478.621 89.8389C477.991 88.7436 477.113 87.811 476.057 87.116L423.499 56.7997C421.558 55.6352 419.869 56.5668 419.869 58.8959V109.688C419.937 110.953 420.3 112.185 420.931 113.284C421.561 114.383 422.441 115.318 423.499 116.015L445.508 128.709L452.456 156.773C452.532 157.208 452.754 157.604 453.086 157.896C453.417 158.187 453.838 158.357 454.279 158.378C454.72 158.398 455.154 158.267 455.511 158.008C455.868 157.748 456.125 157.374 456.241 156.948L462.607 138.568L476.057 146.332C477.998 147.496 479.687 146.564 479.687 144.235V93.4237Z" fill="#6B65FF"/>
<path opacity="0.5" d="M479.687 93.4237C479.616 92.162 479.251 90.9343 478.621 89.8389C477.991 88.7436 477.113 87.811 476.057 87.116L423.499 56.7997C421.558 55.6352 419.869 56.5668 419.869 58.8959V109.688C419.937 110.953 420.3 112.185 420.931 113.284C421.561 114.383 422.441 115.318 423.499 116.015L445.508 128.709L452.456 156.773C452.532 157.208 452.754 157.604 453.086 157.896C453.417 158.187 453.838 158.357 454.279 158.378C454.72 158.398 455.154 158.267 455.511 158.008C455.868 157.748 456.125 157.374 456.241 156.948L462.607 138.568L476.057 146.332C477.998 147.496 479.687 146.564 479.687 144.235V93.4237Z" fill="white"/>
<path d="M439.783 79.9929C440.855 80.6031 441.846 81.3465 442.733 82.2055C443.52 82.9809 444.229 83.8326 444.848 84.748C445.389 85.5572 445.825 86.4309 446.149 87.3488C446.422 88.1263 446.598 88.9347 446.673 89.7554C446.673 90.59 446.77 91.4634 446.77 92.3756C446.77 93.2878 446.77 94.1224 446.673 94.8987C446.628 95.5307 446.449 96.1461 446.149 96.7037C445.867 97.2165 445.403 97.6045 444.848 97.7906C444.165 98.0135 443.434 98.047 442.733 97.8876C441.685 97.6458 440.687 97.2256 439.783 96.6455C438.7 96.0484 437.702 95.311 436.813 94.4523C436.018 93.7036 435.314 92.8632 434.717 91.9486C434.169 91.1439 433.732 90.2691 433.417 89.3479C433.147 88.5683 432.964 87.7611 432.873 86.9412C432.873 86.0872 432.873 85.2138 432.873 84.321C432.873 83.4282 432.873 82.5548 432.873 81.7979C432.933 81.1662 433.118 80.5527 433.417 79.9929C433.697 79.4753 434.161 79.0809 434.717 78.8866C435.405 78.7149 436.125 78.7149 436.813 78.8866C437.859 79.0812 438.864 79.4555 439.783 79.9929ZM458.337 91.8127C458.54 91.6756 458.773 91.589 459.016 91.5604C459.372 91.5838 459.715 91.7046 460.006 91.9098L462.782 93.5013C463.096 93.6878 463.372 93.9313 463.597 94.2194C463.776 94.469 463.878 94.7662 463.888 95.0734C463.896 95.1444 463.896 95.2159 463.888 95.2869C463.849 95.356 463.804 95.421 463.752 95.481L440.889 112.366C440.686 112.504 440.453 112.59 440.21 112.619C439.854 112.595 439.511 112.475 439.22 112.269L436.444 110.678C436.123 110.502 435.844 110.257 435.629 109.96C435.45 109.71 435.348 109.413 435.338 109.106C435.32 109.042 435.32 108.975 435.338 108.912C435.364 108.83 435.411 108.757 435.474 108.698L458.337 91.8127ZM442.228 91.8127C442.256 91.5288 442.256 91.2427 442.228 90.9588V88.4551C442.254 88.1581 442.254 87.8593 442.228 87.5623C442.171 86.8793 441.966 86.217 441.626 85.6214C441.186 84.8841 440.547 84.2856 439.783 83.894C438.89 83.3894 438.269 83.2342 437.842 83.4865C437.662 83.6373 437.516 83.8239 437.412 84.0344C437.308 84.245 437.25 84.4748 437.24 84.7092C437.24 84.8645 437.24 85.1556 437.24 85.5438C437.24 85.932 437.24 86.3395 437.24 86.7859C437.24 87.2323 437.24 87.6399 437.24 88.0475C437.24 88.4551 437.24 88.7656 437.24 88.9597C437.316 89.6389 437.52 90.2975 437.842 90.9005C438.318 91.6389 438.99 92.2302 439.783 92.6085C440.675 93.1325 441.296 93.2684 441.626 93.0355C441.805 92.897 441.952 92.721 442.056 92.5198C442.16 92.3187 442.219 92.0972 442.228 91.871V91.8127ZM459.812 107.747C460.896 108.357 461.894 109.108 462.782 109.979C463.573 110.739 464.276 111.585 464.878 112.502C465.422 113.309 465.859 114.183 466.178 115.103C466.446 115.883 466.628 116.69 466.722 117.51C466.722 118.364 466.722 119.237 466.722 120.149C466.722 121.062 466.722 121.896 466.722 122.653C466.662 123.285 466.477 123.898 466.178 124.458C465.897 124.976 465.434 125.37 464.878 125.564C464.192 125.757 463.467 125.757 462.782 125.564C461.731 125.322 460.728 124.909 459.812 124.342C458.748 123.726 457.758 122.991 456.862 122.148C456.07 121.384 455.361 120.538 454.747 119.625C454.214 118.812 453.777 117.939 453.446 117.025C453.173 116.247 452.997 115.439 452.922 114.618C452.922 113.783 452.825 112.91 452.825 111.998C452.825 111.085 452.825 110.251 452.922 109.475C452.969 108.843 453.148 108.228 453.446 107.67C453.738 107.165 454.198 106.78 454.747 106.583C455.43 106.363 456.159 106.322 456.862 106.466C457.915 106.739 458.913 107.192 459.812 107.805V107.747ZM462.277 119.625C462.293 119.341 462.293 119.056 462.277 118.771V116.326C462.277 115.938 462.277 115.627 462.277 115.433C462.21 114.752 462.005 114.092 461.675 113.492C461.201 112.748 460.529 112.15 459.735 111.765C458.842 111.26 458.221 111.105 457.891 111.357C457.704 111.502 457.553 111.687 457.449 111.899C457.344 112.111 457.29 112.344 457.289 112.58C457.268 112.858 457.268 113.137 457.289 113.415C457.289 113.803 457.289 114.21 457.289 114.657C457.289 115.103 457.289 115.511 457.289 115.918C457.27 116.222 457.27 116.527 457.289 116.83C457.346 117.513 457.552 118.176 457.891 118.771C458.331 119.509 458.97 120.107 459.735 120.499C460.627 121.003 461.274 121.139 461.675 120.906C461.859 120.759 462.008 120.573 462.112 120.362C462.216 120.15 462.272 119.919 462.277 119.683V119.625Z" fill="#FAFAFA"/>
<path d="M118.842 286.597C118.911 285.335 119.275 284.107 119.906 283.011C120.536 281.916 121.415 280.984 122.472 280.29L175.03 249.954C176.971 248.79 178.659 249.741 178.659 252.07V302.862C178.593 304.125 178.23 305.354 177.6 306.45C176.969 307.546 176.089 308.478 175.03 309.17L153.021 321.863L146.072 349.947C146.096 350.462 145.913 350.965 145.566 351.345C145.218 351.725 144.734 351.952 144.219 351.975C143.704 351.998 143.201 351.816 142.821 351.469C142.44 351.121 142.214 350.637 142.191 350.122L135.844 331.742L122.394 339.505C120.453 340.67 118.764 339.719 118.764 337.409L118.842 286.597Z" fill="#6B65FF"/>
<g opacity="0.5">
<path opacity="0.5" d="M118.842 286.597C118.911 285.335 119.275 284.107 119.906 283.011C120.536 281.916 121.415 280.984 122.472 280.29L175.03 249.954C176.971 248.79 178.659 249.741 178.659 252.07V302.862C178.593 304.125 178.23 305.354 177.6 306.45C176.969 307.546 176.089 308.478 175.03 309.17L153.021 321.863L146.072 349.947C146.096 350.462 145.913 350.965 145.566 351.345C145.218 351.725 144.734 351.952 144.219 351.975C143.704 351.998 143.201 351.816 142.821 351.469C142.44 351.121 142.214 350.637 142.191 350.122L135.844 331.742L122.394 339.505C120.453 340.67 118.764 339.719 118.764 337.409L118.842 286.597Z" fill="white"/>
</g>
<path d="M137.203 282.813C138.253 282.16 139.409 281.693 140.619 281.435C141.431 281.271 142.271 281.311 143.064 281.551C143.702 281.781 144.234 282.237 144.558 282.832C144.906 283.473 145.111 284.181 145.16 284.909C145.238 285.802 145.277 286.772 145.277 287.82C145.277 288.868 145.238 289.877 145.16 290.848C145.075 291.801 144.873 292.739 144.558 293.643C144.187 294.697 143.685 295.701 143.064 296.632C142.362 297.691 141.541 298.668 140.619 299.543C139.587 300.526 138.44 301.379 137.203 302.085C136.139 302.736 134.98 303.214 133.767 303.502C132.964 303.681 132.128 303.648 131.341 303.405C130.703 303.175 130.172 302.719 129.847 302.124C129.493 301.484 129.282 300.776 129.226 300.048C129.226 299.155 129.226 298.107 129.226 297.136C129.226 296.166 129.226 295.079 129.226 294.108C129.319 293.155 129.527 292.217 129.847 291.314C130.211 290.256 130.713 289.251 131.341 288.325C132.047 287.267 132.86 286.285 133.767 285.394C134.803 284.397 135.957 283.53 137.203 282.813ZM158.552 271.73C158.772 271.306 159.032 270.903 159.328 270.527C159.655 270.154 160.042 269.839 160.474 269.595L163.695 267.655C163.963 267.457 164.298 267.373 164.627 267.422C164.86 267.422 164.976 267.674 164.976 267.985C164.99 268.088 164.99 268.192 164.976 268.295L164.821 268.703L138.387 318.738C138.166 319.157 137.906 319.553 137.61 319.922C137.288 320.299 136.9 320.615 136.465 320.853L133.263 322.794C132.987 322.991 132.647 323.074 132.312 323.027C132.079 323.027 131.962 322.775 131.962 322.464C131.949 322.361 131.949 322.257 131.962 322.154L132.118 321.746L158.552 271.73ZM140.036 293.332C140.063 292.983 140.063 292.633 140.036 292.284V289.392C140.064 289.063 140.064 288.732 140.036 288.402C140.026 288.13 139.958 287.864 139.838 287.62C139.717 287.376 139.547 287.159 139.338 286.986C138.949 286.714 138.231 286.986 137.203 287.471C136.409 287.871 135.731 288.468 135.235 289.206C134.739 289.943 134.44 290.796 134.369 291.682C134.341 292.038 134.341 292.395 134.369 292.75C134.369 293.216 134.369 293.701 134.369 294.206C134.369 294.71 134.369 295.176 134.369 295.642C134.339 295.965 134.339 296.289 134.369 296.612C134.369 296.886 134.432 297.156 134.553 297.402C134.674 297.648 134.85 297.862 135.068 298.029C135.456 298.301 136.155 298.126 137.203 297.544C138.078 297.104 138.817 296.433 139.338 295.603C139.724 294.902 139.962 294.129 140.036 293.332ZM160.357 288.286C161.416 287.632 162.577 287.16 163.792 286.888C164.598 286.724 165.432 286.764 166.218 287.005C166.856 287.235 167.388 287.691 167.713 288.286C168.066 288.926 168.278 289.634 168.334 290.363C168.334 291.255 168.431 292.303 168.431 293.274C168.431 294.244 168.431 295.331 168.334 296.302C168.243 297.255 168.034 298.194 167.713 299.096C167.346 300.159 166.843 301.17 166.218 302.105C164.732 304.349 162.737 306.211 160.396 307.539C159.342 308.194 158.188 308.673 156.98 308.956C156.171 309.145 155.326 309.112 154.535 308.859C153.893 308.635 153.359 308.178 153.04 307.578C152.691 306.938 152.485 306.229 152.438 305.501C152.438 304.628 152.322 303.56 152.322 302.609C152.322 301.658 152.322 300.533 152.438 299.562C152.522 298.616 152.724 297.683 153.04 296.787C153.412 295.726 153.914 294.716 154.535 293.779C155.241 292.716 156.061 291.733 156.98 290.848C157.985 289.829 159.121 288.948 160.357 288.228V288.286ZM163.191 298.728C163.217 298.379 163.217 298.029 163.191 297.68V294.807C163.219 294.478 163.219 294.147 163.191 293.817C163.192 293.543 163.13 293.272 163.009 293.026C162.887 292.781 162.71 292.566 162.492 292.401C162.104 292.129 161.405 292.284 160.357 292.886C159.485 293.33 158.747 294 158.222 294.827C157.847 295.519 157.61 296.276 157.523 297.059C157.505 297.408 157.505 297.758 157.523 298.107C157.523 298.592 157.523 299.077 157.523 299.562C157.523 300.048 157.523 300.552 157.523 300.999C157.503 301.322 157.503 301.646 157.523 301.969C157.534 302.241 157.602 302.508 157.722 302.752C157.842 302.996 158.013 303.212 158.222 303.386C158.61 303.657 159.328 303.502 160.357 302.901C161.233 302.462 161.972 301.79 162.492 300.96C162.892 300.258 163.131 299.475 163.191 298.669V298.728Z" fill="#FAFAFA"/>
</svg>
