<svg width="852" height="634" viewBox="0 0 852 634" fill="none" xmlns="http://www.w3.org/2000/svg">
<path d="M124.967 566.38C291.223 653.243 560.808 653.243 727.101 566.38C893.395 479.516 893.376 338.684 727.101 251.82C560.827 164.957 291.26 164.957 124.967 251.82C-41.3264 338.684 -41.2893 479.591 124.967 566.38Z" fill="#F5F5F5"/>
<path d="M115.526 421.068C139.112 421.068 158.233 411.957 158.233 400.719C158.233 389.48 139.112 380.369 115.526 380.369C91.9395 380.369 72.819 389.48 72.819 400.719C72.819 411.957 91.9395 421.068 115.526 421.068Z" fill="#EBEBEB"/>
<path d="M602.883 448.239C634.363 448.239 659.882 436.074 659.882 421.068C659.882 406.063 634.363 393.898 602.883 393.898C571.404 393.898 545.885 406.063 545.885 421.068C545.885 436.074 571.404 448.239 602.883 448.239Z" fill="#EBEBEB"/>
<path d="M773.284 309.283C773.284 309.283 777.688 295.68 792.017 281.184C798.335 274.791 802.461 270.33 801.142 266.521C799.952 263.157 795.938 261.41 790.195 264.123C782.037 267.989 776.536 275.162 773.284 289.565V309.283Z" fill="#2B95FB"/>
<path opacity="0.1" d="M773.284 309.283C773.284 309.283 777.688 295.68 792.017 281.184C798.335 274.791 802.461 270.33 801.142 266.521C799.952 263.157 795.938 261.41 790.195 264.123C782.037 267.989 776.536 275.162 773.284 289.565V309.283Z" fill="black"/>
<path d="M772.373 300.734H772.206C772.026 300.686 771.873 300.57 771.78 300.41C771.686 300.25 771.658 300.059 771.704 299.88C776.815 280.143 790.028 267.914 795.622 265.09C795.79 265.011 795.983 264.999 796.159 265.058C796.335 265.117 796.482 265.241 796.57 265.406C796.648 265.571 796.659 265.761 796.6 265.934C796.541 266.107 796.417 266.251 796.254 266.335C790.846 269.067 778.041 280.961 773.061 300.233C773.016 300.38 772.925 300.508 772.801 300.599C772.677 300.689 772.526 300.737 772.373 300.734Z" fill="white"/>
<path d="M773.284 326.177C773.284 326.177 779.398 314.19 786.776 307.815C794.154 301.441 803.632 294.936 795.603 289.956C787.575 284.975 774.361 294.751 773.302 304.396L773.284 326.177Z" fill="#2B95FB"/>
<path d="M772.373 317.646H772.224C772.046 317.602 771.891 317.49 771.794 317.334C771.697 317.178 771.665 316.99 771.704 316.81C775.179 301.942 787.649 293.542 791.794 292.148C791.965 292.113 792.142 292.142 792.293 292.23C792.444 292.318 792.557 292.459 792.61 292.625C792.663 292.791 792.653 292.971 792.581 293.13C792.509 293.289 792.381 293.416 792.221 293.486C788.504 294.75 776.35 303.02 773.061 317.126C773.02 317.276 772.93 317.409 772.805 317.503C772.681 317.597 772.529 317.648 772.373 317.646Z" fill="white"/>
<path d="M229.764 446.659C229.764 446.659 226.939 440.378 215.138 437.72C203.653 435.137 197.948 437.72 190.198 436.382C182.448 435.044 184.474 420.567 205.326 422.072C224.412 423.447 229.764 438.463 229.764 438.463V446.659Z" fill="#2B95FB"/>
<path d="M230.898 443.203C230.763 443.199 230.631 443.157 230.519 443.082C230.407 443.006 230.319 442.899 230.266 442.775C228.408 438.334 221.531 431.086 211.849 428.874C199.825 426.142 193.432 428.874 193.376 428.874C193.21 428.93 193.028 428.922 192.868 428.852C192.707 428.782 192.578 428.654 192.506 428.494C192.434 428.334 192.424 428.153 192.479 427.986C192.533 427.819 192.647 427.679 192.8 427.592C193.079 427.48 199.695 424.6 212.146 427.443C222.907 429.896 229.764 437.776 231.548 442.181C231.585 442.265 231.604 442.355 231.605 442.447C231.606 442.538 231.589 442.629 231.554 442.714C231.519 442.799 231.468 442.876 231.403 442.941C231.339 443.005 231.261 443.057 231.177 443.091L230.898 443.203Z" fill="white"/>
<path d="M229.764 439.504C227.412 435.292 224.4 431.484 220.844 428.223C209.693 417.407 194.826 414.006 187.392 408.097C179.215 401.722 189.12 394.363 199.639 394.827C205.66 395.106 212.016 399.083 215.51 401.945C227.813 411.999 229.839 428.223 229.839 428.223L229.764 439.504Z" fill="#2B95FB"/>
<path opacity="0.5" d="M229.764 439.504C227.412 435.292 224.4 431.484 220.844 428.223C209.693 417.407 194.826 414.006 187.392 408.097C179.215 401.722 189.12 394.363 199.639 394.827C205.66 395.106 212.016 399.083 215.51 401.945C227.813 411.999 229.839 428.223 229.839 428.223L229.764 439.504Z" fill="white"/>
<path d="M230.898 438.408C230.732 438.405 230.571 438.345 230.446 438.236C230.32 438.127 230.237 437.977 230.21 437.813C228.746 430 225.202 422.726 219.952 416.757C211.18 406.777 196.182 401.425 196.015 401.369C195.845 401.306 195.707 401.18 195.627 401.018C195.547 400.855 195.533 400.668 195.588 400.496C195.617 400.408 195.663 400.327 195.724 400.258C195.785 400.189 195.86 400.132 195.943 400.093C196.026 400.053 196.117 400.03 196.209 400.026C196.301 400.022 196.393 400.036 196.48 400.068C197.111 400.273 211.979 405.643 220.992 415.828C226.459 421.986 230.129 429.526 231.604 437.627C231.617 437.719 231.611 437.813 231.587 437.902C231.563 437.992 231.521 438.075 231.464 438.148C231.407 438.221 231.335 438.282 231.254 438.326C231.173 438.371 231.083 438.399 230.991 438.408H230.898Z" fill="white"/>
<path d="M484.817 555.006C484.817 555.006 487.976 548.873 499.907 546.848C511.504 544.878 517.061 547.684 524.885 546.848C532.709 546.011 531.445 531.348 510.537 531.739C491.414 532.092 485.263 546.792 485.263 546.792L484.817 555.006Z" fill="#2B95FB"/>
<path opacity="0.1" d="M484.817 555.006C484.817 555.006 487.976 548.873 499.907 546.848C511.504 544.878 517.061 547.684 524.885 546.848C532.709 546.011 531.445 531.348 510.537 531.739C491.414 532.092 485.263 546.792 485.263 546.792L484.817 555.006Z" fill="black"/>
<path d="M483.906 552.07C483.76 552.064 483.619 552.019 483.497 551.94C483.422 551.888 483.358 551.822 483.309 551.745C483.26 551.668 483.226 551.582 483.211 551.492C483.195 551.402 483.198 551.31 483.218 551.221C483.239 551.132 483.277 551.048 483.33 550.973C487.771 544.618 495.856 539.823 504.981 538.225C516.707 536.125 523.565 539.841 523.862 540.083C523.942 540.127 524.012 540.186 524.068 540.257C524.124 540.328 524.166 540.409 524.191 540.496C524.216 540.584 524.224 540.675 524.214 540.765C524.204 540.855 524.176 540.942 524.132 541.022C524.088 541.101 524.029 541.171 523.958 541.227C523.887 541.284 523.806 541.326 523.718 541.351C523.631 541.376 523.54 541.383 523.45 541.373C523.36 541.363 523.273 541.335 523.193 541.291C523.193 541.291 516.447 537.667 505.222 539.674C496.469 541.235 488.701 545.788 484.482 551.847C484.408 551.923 484.318 551.983 484.218 552.021C484.119 552.06 484.012 552.076 483.906 552.07Z" fill="white"/>
<path d="M485.653 546.402C488.351 543.007 491.418 539.922 494.796 537.202C506.56 527.018 521.446 525.364 529.326 519.863C537.838 513.935 528.341 506.055 517.804 505.962C511.783 505.962 505.222 509.549 501.561 512.225C493.76 518.07 487.925 526.154 484.835 535.4L485.653 546.402Z" fill="#2B95FB"/>
<path opacity="0.5" d="M485.653 546.402C488.351 543.007 491.418 539.922 494.796 537.202C506.56 527.018 521.446 525.364 529.326 519.863C537.838 513.935 528.341 506.055 517.804 505.962C511.783 505.962 505.222 509.549 501.561 512.225C493.76 518.07 487.925 526.154 484.835 535.4L485.653 546.402Z" fill="white"/>
<path d="M483.906 546.253H483.646C483.475 546.19 483.335 546.065 483.252 545.903C483.17 545.741 483.151 545.555 483.2 545.38C486.104 537.403 490.693 530.145 496.655 524.1C503.121 517.432 511.521 512.965 520.666 511.333C520.755 511.32 520.846 511.325 520.934 511.348C521.021 511.372 521.103 511.412 521.174 511.468C521.245 511.523 521.304 511.593 521.348 511.672C521.391 511.751 521.419 511.838 521.428 511.928C521.441 512.02 521.435 512.113 521.411 512.203C521.387 512.292 521.345 512.376 521.288 512.449C521.23 512.522 521.159 512.582 521.078 512.627C520.996 512.671 520.907 512.699 520.814 512.708C512.01 514.379 503.925 518.697 497.64 525.085C491.866 530.964 487.429 538.02 484.631 545.77C484.581 545.92 484.483 546.049 484.352 546.137C484.22 546.224 484.063 546.265 483.906 546.253Z" fill="white"/>
<path d="M305.235 448.22V307.815H229.764V448.239C229.764 453.814 233.481 459.39 240.915 463.627C255.652 472.139 279.552 472.139 294.289 463.627C301.723 459.371 305.328 453.814 305.347 448.239L305.235 448.22Z" fill="#37474F"/>
<path d="M240.822 324.169C226.066 315.658 226.066 301.868 240.822 293.338C255.578 284.808 279.459 284.826 294.196 293.338C308.934 301.85 308.934 315.639 294.196 324.169C279.459 332.7 255.559 332.662 240.822 324.169Z" fill="#455A64"/>
<path d="M395.834 500.535V398.321H320.345V500.535C320.345 506.111 324.062 511.686 331.495 515.923C346.233 524.435 370.132 524.435 384.87 515.923C392.303 511.686 395.927 506.111 395.927 500.535H395.834Z" fill="#37474F"/>
<path d="M331.402 414.694C316.665 406.182 316.665 392.393 331.402 383.862C346.14 375.332 370.039 375.351 384.777 383.862C399.514 392.374 399.533 406.164 384.777 414.694C370.021 423.224 346.121 423.28 331.402 414.694Z" fill="#455A64"/>
<path d="M486.433 552.832V473.458H410.944V552.85C410.944 558.426 414.66 564.001 422.094 568.257C436.832 576.769 460.731 576.769 475.469 568.257C482.902 564.001 486.508 558.426 486.526 552.85L486.433 552.832Z" fill="#37474F"/>
<path d="M448.689 496.168C469.534 496.168 486.433 486.408 486.433 474.369C486.433 462.329 469.534 452.569 448.689 452.569C427.843 452.569 410.944 462.329 410.944 474.369C410.944 486.408 427.843 496.168 448.689 496.168Z" fill="#455A64"/>
<path d="M224.932 497.729L207.11 487.452L216.978 474.666C218.242 473.031 217.647 472.139 215.659 472.64L192.019 478.736L174.197 468.44C172.7 467.68 171.044 467.283 169.365 467.283C167.686 467.283 166.03 467.68 164.533 468.44L136.452 484.609C133.776 486.151 133.776 488.642 136.452 490.184L187.187 519.473C188.684 520.234 190.34 520.63 192.019 520.63C193.699 520.63 195.354 520.234 196.851 519.473L224.932 503.249C227.59 501.762 227.59 499.272 224.932 497.729Z" fill="#2B95FB"/>
<path d="M196.424 491.429C196.714 491.4 197.007 491.4 197.297 491.429C197.586 491.465 197.864 491.56 198.115 491.708L200.661 493.176C200.833 493.259 200.966 493.406 201.033 493.585C201.033 493.733 201.033 493.864 200.773 493.956C200.712 493.973 200.648 493.973 200.587 493.956C200.495 493.978 200.4 493.978 200.308 493.956L164.998 496.744H163.994C163.704 496.701 163.426 496.599 163.176 496.447L160.63 494.979C160.458 494.895 160.325 494.749 160.259 494.57C160.259 494.421 160.259 494.291 160.519 494.198C160.58 494.181 160.644 494.181 160.705 494.198H160.983L196.424 491.429ZM185.05 489.069C184.295 489.573 183.506 490.027 182.69 490.425C182.031 490.76 181.34 491.028 180.627 491.225C179.88 491.413 179.112 491.507 178.341 491.503C176.621 491.507 174.932 491.045 173.454 490.165C172.748 489.82 172.117 489.34 171.595 488.753C171.256 488.366 171.065 487.873 171.056 487.359C171.063 486.874 171.241 486.407 171.558 486.039C171.928 485.56 172.381 485.15 172.896 484.831C173.249 484.577 173.615 484.341 173.992 484.125C174.346 483.921 174.773 483.698 175.238 483.475C175.907 483.138 176.611 482.876 177.338 482.694C178.881 482.31 180.496 482.31 182.04 482.694C182.898 482.927 183.723 483.271 184.493 483.716C185.163 484.066 185.757 484.547 186.24 485.129C186.582 485.514 186.779 486.007 186.797 486.523C186.773 487.004 186.598 487.466 186.295 487.842C185.955 488.32 185.534 488.736 185.05 489.069ZM188.563 503.602C187.843 504.139 187.085 504.624 186.295 505.051C185.631 505.385 184.934 505.647 184.214 505.832C183.469 506.037 182.7 506.137 181.928 506.129C181.105 506.126 180.287 506.013 179.493 505.795C178.633 505.576 177.807 505.239 177.04 504.791C176.377 504.43 175.785 503.952 175.293 503.379C174.951 502.988 174.759 502.486 174.754 501.966C174.769 501.486 174.939 501.023 175.238 500.647C175.616 500.173 176.075 499.771 176.594 499.457C176.939 499.192 177.306 498.956 177.691 498.751C178.091 498.508 178.507 498.291 178.936 498.101C179.599 497.764 180.297 497.502 181.017 497.32C181.766 497.137 182.533 497.037 183.303 497.023C185.017 497.022 186.699 497.485 188.172 498.361C188.881 498.701 189.513 499.181 190.031 499.773C190.359 500.149 190.54 500.631 190.54 501.13C190.54 501.629 190.359 502.111 190.031 502.487C189.608 502.939 189.112 503.316 188.563 503.602ZM176.724 486.876C176.355 487.085 176.052 487.394 175.851 487.768C175.851 488.028 175.851 488.288 176.39 488.548C176.791 488.792 177.26 488.903 177.728 488.864C178.268 488.779 178.789 488.603 179.27 488.344C179.975 488.006 180.652 487.615 181.296 487.173C181.674 486.97 181.985 486.659 182.188 486.281C182.188 486.021 182.095 485.761 181.649 485.501C181.242 485.254 180.765 485.15 180.293 485.203C179.759 485.279 179.243 485.448 178.769 485.705C178.059 486.015 177.375 486.381 176.724 486.801V486.876ZM180.255 501.409C179.877 501.612 179.567 501.922 179.363 502.301C179.363 502.542 179.363 502.803 179.902 503.063C180.304 503.322 180.784 503.434 181.259 503.379C181.791 503.295 182.305 503.125 182.783 502.877C183.495 502.543 184.179 502.152 184.827 501.706C185.201 501.503 185.506 501.192 185.701 500.814C185.701 500.554 185.701 500.294 185.162 500.034C184.76 499.79 184.292 499.679 183.824 499.718C183.289 499.801 182.773 499.977 182.3 500.238C181.59 500.548 180.906 500.914 180.255 501.334V501.409Z" fill="white"/>
<path d="M323.095 554.375L305.235 544.079L315.104 531.311C316.349 529.676 315.754 528.765 313.766 529.286L290.126 535.363L272.304 525.086C270.81 524.325 269.158 523.929 267.481 523.929C265.805 523.929 264.152 524.325 262.659 525.086L234.615 541.291C231.957 542.834 231.957 545.343 234.615 546.867L285.35 576.174C286.85 576.926 288.504 577.318 290.182 577.318C291.86 577.318 293.514 576.926 295.014 576.174L323.095 559.95C325.771 558.407 325.771 555.917 323.095 554.375Z" fill="#2B95FB"/>
<path d="M294.587 548.074H295.479C295.768 548.12 296.045 548.221 296.296 548.371L298.824 549.84C299.047 549.97 299.177 550.1 299.196 550.249C299.214 550.397 299.196 550.509 298.954 550.62C298.893 550.634 298.829 550.634 298.768 550.62H298.489L263.179 553.408C262.882 553.437 262.584 553.437 262.287 553.408C261.997 553.367 261.718 553.266 261.469 553.11L258.942 551.661C258.719 551.531 258.589 551.382 258.57 551.252C258.564 551.17 258.584 551.088 258.627 551.018C258.671 550.948 258.735 550.893 258.812 550.862H258.997H259.276L294.587 548.074ZM283.213 545.714C282.466 546.222 281.684 546.676 280.871 547.071C280.207 547.404 279.51 547.666 278.79 547.851C278.045 548.055 277.276 548.155 276.504 548.148C275.681 548.145 274.863 548.033 274.069 547.814C273.209 547.596 272.383 547.258 271.616 546.81C270.948 546.449 270.35 545.971 269.851 545.398C269.514 545.023 269.327 544.536 269.327 544.032C269.327 543.528 269.514 543.041 269.851 542.666C270.227 542.197 270.679 541.795 271.189 541.477C271.54 541.219 271.906 540.984 272.285 540.77C272.695 540.531 273.116 540.314 273.549 540.12C274.212 539.783 274.91 539.521 275.631 539.339C276.833 539.033 278.084 538.968 279.312 539.146C280.54 539.325 281.72 539.744 282.786 540.38C283.458 540.736 284.057 541.215 284.551 541.793C284.893 542.177 285.084 542.672 285.09 543.186C285.076 543.67 284.899 544.135 284.588 544.506C284.207 544.989 283.741 545.399 283.213 545.714ZM286.744 560.247C285.989 560.753 285.201 561.206 284.384 561.604C283.728 561.94 283.036 562.202 282.321 562.384C281.574 562.573 280.806 562.666 280.035 562.663C278.315 562.667 276.626 562.204 275.147 561.325C274.476 560.975 273.878 560.502 273.382 559.931C273.039 559.54 272.848 559.039 272.843 558.519C272.864 558.036 273.04 557.574 273.345 557.199C273.719 556.724 274.172 556.315 274.683 555.991C275.054 555.731 275.426 555.508 275.779 555.285C276.132 555.062 276.56 554.857 277.024 554.634C277.693 554.298 278.398 554.036 279.124 553.854C279.875 553.684 280.641 553.59 281.41 553.575C282.226 553.573 283.039 553.679 283.826 553.891C284.689 554.112 285.515 554.457 286.279 554.913C286.952 555.269 287.551 555.748 288.045 556.326C288.381 556.698 288.566 557.181 288.566 557.682C288.566 558.183 288.381 558.667 288.045 559.039C287.681 559.511 287.242 559.919 286.744 560.247ZM274.906 543.521C274.527 543.725 274.217 544.035 274.014 544.413C274.014 544.655 274.107 544.915 274.553 545.175C274.955 545.434 275.434 545.546 275.909 545.491C276.44 545.404 276.954 545.235 277.433 544.989C278.15 544.656 278.834 544.258 279.477 543.8C279.849 543.602 280.153 543.298 280.351 542.926C280.351 542.666 280.258 542.406 279.812 542.146C279.414 541.893 278.943 541.782 278.474 541.83C277.933 541.912 277.411 542.088 276.931 542.35C276.227 542.66 275.55 543.027 274.906 543.447V543.521ZM278.418 558.054C278.055 558.262 277.753 558.564 277.545 558.927C277.545 559.188 277.638 559.448 278.084 559.708C278.482 559.96 278.953 560.072 279.422 560.024C279.959 559.94 280.48 559.771 280.964 559.522C281.667 559.175 282.344 558.778 282.99 558.333C283.362 558.129 283.671 557.827 283.882 557.459C283.975 557.199 283.882 556.939 283.343 556.679C282.938 556.427 282.461 556.316 281.986 556.363C281.455 556.45 280.941 556.619 280.462 556.865C279.758 557.191 279.075 557.564 278.418 557.98V558.054Z" fill="white"/>
<path d="M421.184 610.983L403.361 600.705L413.248 587.901C414.493 586.284 413.898 585.373 411.91 585.894L388.271 591.971L370.448 581.693C368.951 580.933 367.295 580.536 365.616 580.536C363.937 580.536 362.281 580.933 360.784 581.693L332.703 597.973C330.046 599.516 330.046 602.025 332.703 603.549L383.439 632.856C384.938 633.608 386.593 634 388.271 634C389.948 634 391.603 633.608 393.102 632.856L421.184 616.558C423.86 615.071 423.86 612.581 421.184 610.983Z" fill="#2B95FB"/>
<path d="M392.675 604.738H393.549C393.838 604.782 394.116 604.883 394.366 605.036L396.912 606.504C397.135 606.634 397.265 606.764 397.284 606.913C397.303 607.061 397.284 607.173 397.042 607.284H396.857H396.578L361.267 610.072C360.977 610.101 360.684 610.101 360.394 610.072C360.103 610.034 359.824 609.932 359.576 609.775L357.049 608.325C356.826 608.195 356.696 608.046 356.677 607.916C356.671 607.834 356.691 607.752 356.734 607.682C356.778 607.612 356.842 607.557 356.919 607.526H357.105C357.196 607.505 357.292 607.505 357.383 607.526L392.675 604.738ZM381.301 602.378C380.551 602.891 379.762 603.344 378.941 603.735C378.285 604.072 377.593 604.333 376.878 604.515C376.134 604.719 375.364 604.819 374.592 604.813C373.764 604.809 372.939 604.696 372.139 604.478C371.284 604.261 370.464 603.923 369.705 603.475C369.037 603.113 368.439 602.635 367.939 602.062C367.596 601.671 367.405 601.17 367.4 600.65C367.422 600.167 367.597 599.705 367.902 599.33C368.282 598.86 368.733 598.452 369.24 598.122C369.612 597.862 369.983 597.639 370.337 597.435C370.69 597.23 371.117 597.007 371.582 596.766C372.949 596.096 374.446 595.734 375.968 595.706C377.681 595.712 379.361 596.174 380.837 597.044C381.509 597.4 382.108 597.879 382.602 598.457C382.938 598.845 383.129 599.338 383.141 599.851C383.117 600.332 382.942 600.794 382.639 601.17C382.27 601.65 381.816 602.059 381.301 602.378ZM384.814 616.911C384.063 617.413 383.281 617.866 382.472 618.268C381.815 618.601 381.123 618.863 380.409 619.048C378.854 619.444 377.225 619.444 375.67 619.048C374.815 618.823 373.995 618.479 373.236 618.026C372.527 617.686 371.895 617.206 371.377 616.614C371.033 616.231 370.841 615.735 370.838 615.22C370.849 614.739 371.019 614.275 371.322 613.9C371.708 613.43 372.166 613.022 372.678 612.692C373.031 612.438 373.397 612.202 373.775 611.986C374.128 611.782 374.555 611.559 375.02 611.336C376.376 610.638 377.88 610.274 379.406 610.276C380.222 610.274 381.034 610.38 381.822 610.592C382.677 610.817 383.497 611.161 384.256 611.615C384.965 611.954 385.597 612.435 386.115 613.027C386.459 613.41 386.651 613.906 386.654 614.421C386.643 614.902 386.473 615.366 386.171 615.74C385.79 616.207 385.331 616.603 384.814 616.911ZM372.976 600.185C372.606 600.394 372.303 600.703 372.102 601.077C372.102 601.319 372.195 601.579 372.641 601.839C373.04 602.089 373.51 602.2 373.979 602.155C374.517 602.071 375.038 601.902 375.522 601.653C376.236 601.317 376.92 600.919 377.566 600.464C377.937 600.266 378.241 599.962 378.439 599.59C378.532 599.33 378.439 599.07 377.9 598.81C377.495 598.559 377.018 598.448 376.544 598.494C376.01 598.58 375.495 598.756 375.02 599.014C374.312 599.328 373.629 599.695 372.976 600.111V600.185ZM376.507 614.718C376.139 614.928 375.832 615.228 375.615 615.592C375.615 615.852 375.615 616.112 376.172 616.372C376.57 616.625 377.041 616.736 377.51 616.688C378.042 616.604 378.556 616.434 379.034 616.186C379.743 615.839 380.426 615.442 381.078 614.997C381.45 614.793 381.759 614.491 381.97 614.123C382.07 613.863 381.884 613.603 381.413 613.343C381.015 613.09 380.544 612.979 380.075 613.027C379.543 613.111 379.029 613.281 378.551 613.529C377.842 613.87 377.159 614.261 376.507 614.7V614.718Z" fill="white"/>
<path d="M675.158 304.396L644.958 286.964V199.784L675.158 217.216V304.396Z" fill="#37474F"/>
<path d="M675.158 304.396L705.357 286.964V199.784L675.158 217.216V304.396Z" fill="#455A64"/>
<path d="M644.958 199.784L675.158 217.216L705.357 199.784L675.158 182.352L644.958 199.784Z" fill="#455A64"/>
<path d="M607.213 265.164L577.014 247.732V73.3916L607.213 90.8238V265.164Z" fill="#37474F"/>
<path d="M607.213 265.164L637.413 247.732V73.3916L607.213 90.8238V265.164Z" fill="#455A64"/>
<path d="M577.014 73.3916L607.213 90.8238L637.413 73.3916L607.213 55.9595L577.014 73.3916Z" fill="#455A64"/>
<path d="M539.269 225.932L509.069 208.5V147.488L539.269 164.92V225.932Z" fill="#37474F"/>
<path d="M539.269 225.932L569.468 208.5V147.488L539.269 164.92V225.932Z" fill="#455A64"/>
<path d="M509.069 147.487L539.269 164.92L569.468 147.487L539.269 130.055L509.069 147.487Z" fill="#455A64"/>
<path d="M743.102 343.627L712.903 326.177V160.571L743.084 178.003L743.102 343.627Z" fill="#37474F"/>
<path d="M743.084 343.627L773.284 326.177V160.571L743.084 178.003V343.627Z" fill="#455A64"/>
<path d="M712.903 160.571L743.084 178.003L773.284 160.571L743.102 143.12L712.903 160.571Z" fill="#455A64"/>
<g opacity="0.3">
<path opacity="0.3" d="M531.965 330.971L531.649 137.917C531.584 136.799 531.257 135.713 530.696 134.744C530.134 133.776 529.353 132.953 528.415 132.341L300.645 1.41427C298.787 0.392129 297.43 1.22843 297.43 3.27271L297.802 196.253C297.863 197.372 298.187 198.46 298.749 199.429C299.311 200.398 300.095 201.22 301.035 201.828L528.824 332.848C530.553 333.871 531.965 333.034 531.965 330.971Z" fill="white"/>
</g>
<path d="M530.218 334.205C529.561 334.179 528.922 333.988 528.36 333.647L300.571 202.627C299.483 201.943 298.578 201.006 297.93 199.896C297.283 198.786 296.914 197.536 296.854 196.253L296.501 3.27262C296.423 2.70666 296.515 2.13037 296.766 1.61699C297.016 1.10362 297.414 0.676351 297.908 0.389495C298.402 0.102639 298.97 -0.0308529 299.54 0.00600185C300.11 0.0428566 300.657 0.248384 301.11 0.596463L528.899 131.505C529.984 132.192 530.888 133.129 531.535 134.239C532.182 135.348 532.552 136.597 532.616 137.879L532.931 330.934C532.976 331.497 532.871 332.063 532.626 332.572C532.381 333.081 532.005 333.516 531.538 333.833C531.139 334.073 530.683 334.201 530.218 334.205ZM299.214 1.82304C299.092 1.79073 298.964 1.79073 298.842 1.82304C298.661 1.9793 298.522 2.17857 298.437 2.4026C298.353 2.62663 298.326 2.86827 298.359 3.10537L298.675 196.16C298.728 197.137 299.014 198.087 299.508 198.93C300.003 199.774 300.692 200.487 301.519 201.011L529.308 332.031C529.865 332.347 530.348 332.439 530.646 332.254C530.943 332.068 531.129 331.622 531.129 330.971L530.813 137.917C530.753 136.965 530.474 136.04 529.996 135.215C529.519 134.389 528.857 133.686 528.062 133.159L300.18 2.13897C299.89 1.95322 299.558 1.84448 299.214 1.82304Z" fill="#2B95FB"/>
<path d="M510.333 288.376C504.293 284.083 500.762 280.199 498.365 250.352L498.16 247.806C495.911 219.762 494.443 201.252 481.657 193.614C475.524 189.897 470.618 193.614 465.433 197.647C460.731 201.234 455.899 204.913 450.454 201.81C440.883 196.235 439.303 185.195 436.33 165.05C435.958 162.56 435.586 159.939 435.159 157.189C434.508 152.896 433.951 148.9 433.431 145.146C430.494 123.997 428.71 111.211 417.894 104.688C416.829 103.933 415.602 103.437 414.311 103.24C413.021 103.044 411.702 103.151 410.46 103.554C402.265 106.416 395.853 123.755 389.07 142.135C388.549 143.492 388.048 144.923 387.509 146.354C382.584 159.902 377.008 175.271 369.296 178.115C368.205 178.514 367.039 178.661 365.883 178.545C364.728 178.429 363.614 178.053 362.624 177.446C354.949 173.097 353.573 161.203 352.254 149.681C350.934 138.158 349.652 126.58 342.404 122.213C341.79 121.815 341.087 121.575 340.358 121.514C339.628 121.452 338.895 121.571 338.223 121.86C329.228 125.354 321.255 151.966 321.181 152.227L319.322 151.706C319.657 150.573 327.63 123.96 337.461 120.113C338.4 119.724 339.418 119.567 340.43 119.654C341.443 119.741 342.419 120.071 343.278 120.615C351.288 125.409 352.681 137.619 354.038 149.42C355.395 161.221 356.621 171.908 363.498 175.792C364.247 176.268 365.097 176.564 365.98 176.658C366.864 176.751 367.757 176.639 368.59 176.331C375.484 173.785 381.153 158.211 385.706 145.685C386.245 144.235 386.747 142.823 387.267 141.448C394.515 121.841 400.778 104.911 409.791 101.751C411.285 101.267 412.871 101.134 414.424 101.363C415.978 101.592 417.458 102.176 418.749 103.071C430.308 110.059 432.148 123.161 435.159 144.867C435.679 148.584 436.237 152.598 436.887 156.873C437.315 159.642 437.686 162.262 438.058 164.734C440.902 184.322 442.481 195.101 451.272 200.156C455.639 202.665 459.597 199.635 464.188 196.142C469.391 192.165 475.338 187.686 482.493 191.979C496.079 200.119 497.603 219.019 499.888 247.62L500.093 250.166C502.546 280.608 506.226 283.209 511.243 286.833L510.333 288.376Z" fill="#2B95FB"/>
<g opacity="0.4">
<path opacity="0.4" d="M510.333 288.376C504.293 284.083 500.762 280.199 498.365 250.352L498.16 247.806C495.911 219.762 494.443 201.252 481.657 193.614C475.524 189.897 470.618 193.614 465.433 197.647C460.731 201.234 455.899 204.913 450.454 201.81C440.883 196.235 439.303 185.195 436.33 165.05C435.958 162.56 435.586 159.939 435.159 157.189C434.508 152.896 433.951 148.9 433.431 145.146C430.494 123.997 428.71 111.211 417.894 104.688C416.829 103.933 415.602 103.437 414.311 103.24C413.021 103.044 411.702 103.151 410.46 103.554C402.265 106.416 395.853 123.755 389.07 142.135C388.549 143.492 388.048 144.923 387.509 146.354C382.584 159.902 377.008 175.271 369.296 178.115C368.205 178.514 367.039 178.661 365.883 178.545C364.728 178.429 363.614 178.053 362.624 177.446C354.949 173.097 353.573 161.203 352.254 149.681C350.934 138.158 349.652 126.58 342.404 122.213C341.79 121.815 341.087 121.575 340.358 121.514C339.628 121.452 338.895 121.571 338.223 121.86C329.228 125.354 321.255 151.966 321.181 152.227L319.322 151.706C319.657 150.573 327.63 123.96 337.461 120.113C338.4 119.724 339.418 119.567 340.43 119.654C341.443 119.741 342.419 120.071 343.278 120.615C351.288 125.409 352.681 137.619 354.038 149.42C355.395 161.221 356.621 171.908 363.498 175.792C364.247 176.268 365.097 176.564 365.98 176.658C366.864 176.751 367.757 176.639 368.59 176.331C375.484 173.785 381.153 158.211 385.706 145.685C386.245 144.235 386.747 142.823 387.267 141.448C394.515 121.841 400.778 104.911 409.791 101.751C411.285 101.267 412.871 101.134 414.424 101.363C415.978 101.592 417.458 102.176 418.749 103.071C430.308 110.059 432.148 123.161 435.159 144.867C435.679 148.584 436.237 152.598 436.887 156.873C437.315 159.642 437.686 162.262 438.058 164.734C440.902 184.322 442.481 195.101 451.272 200.156C455.639 202.665 459.597 199.635 464.188 196.142C469.391 192.165 475.338 187.686 482.493 191.979C496.079 200.119 497.603 219.019 499.888 247.62L500.093 250.166C502.546 280.608 506.226 283.209 511.243 286.833L510.333 288.376Z" fill="black"/>
</g>
<path d="M478.907 185.4C480.289 186.305 481.44 187.521 482.27 188.951C483.099 190.38 483.583 191.983 483.683 193.633C483.683 196.662 481.546 197.888 478.925 196.383C477.537 195.484 476.381 194.27 475.551 192.839C474.721 191.408 474.24 189.802 474.149 188.15C474.149 185.195 476.212 183.969 478.907 185.4Z" fill="#2B95FB"/>
<g opacity="0.2">
<path opacity="0.2" d="M478.907 185.4C480.289 186.305 481.44 187.521 482.27 188.951C483.099 190.38 483.583 191.983 483.683 193.633C483.683 196.662 481.546 197.888 478.925 196.383C477.537 195.484 476.381 194.27 475.551 192.839C474.721 191.408 474.24 189.802 474.149 188.15C474.149 185.195 476.212 183.969 478.907 185.4Z" fill="black"/>
</g>
<path d="M418.377 98.406C419.761 99.3083 420.913 100.524 421.739 101.954C422.566 103.385 423.044 104.989 423.135 106.639C423.135 109.668 421.016 110.895 418.396 109.389C417.006 108.491 415.849 107.277 415.019 105.846C414.189 104.415 413.71 102.808 413.62 101.157C413.62 98.0529 415.738 96.9007 418.377 98.406Z" fill="#2B95FB"/>
<g opacity="0.5">
<path opacity="0.5" d="M418.377 98.406C419.761 99.3083 420.913 100.524 421.739 101.954C422.566 103.385 423.044 104.989 423.135 106.639C423.135 109.668 421.016 110.895 418.396 109.389C417.006 108.491 415.849 107.277 415.019 105.846C414.189 104.415 413.71 102.808 413.62 101.157C413.62 98.0529 415.738 96.9007 418.377 98.406Z" fill="white"/>
</g>
<path d="M342.906 115.968C344.295 116.862 345.452 118.073 346.282 119.501C347.113 120.929 347.592 122.533 347.682 124.183C347.682 127.23 345.563 128.457 342.925 126.952C341.542 126.048 340.391 124.833 339.564 123.402C338.738 121.972 338.259 120.368 338.167 118.719C338.148 115.69 340.286 114.444 342.906 115.968Z" fill="#2B95FB"/>
<path opacity="0.65" d="M410.925 322.46V129.405C410.863 128.289 410.54 127.203 409.982 126.234C409.423 125.266 408.645 124.442 407.71 123.83L210.325 9.87008C208.466 8.84794 207.11 9.68424 207.11 11.7285V204.783C207.17 205.9 207.493 206.986 208.051 207.955C208.61 208.924 209.389 209.747 210.325 210.359L407.71 324.318C409.494 325.359 410.925 324.523 410.925 322.46Z" fill="white"/>
<path d="M409.159 325.693C408.503 325.668 407.863 325.476 407.301 325.136L209.86 211.176C208.776 210.484 207.873 209.543 207.226 208.431C206.579 207.319 206.208 206.068 206.143 204.783V11.7285C206.07 11.164 206.166 10.5905 206.418 10.0803C206.67 9.57005 207.068 9.14601 207.561 8.86169C208.054 8.57737 208.62 8.4455 209.188 8.48273C209.756 8.51997 210.301 8.72465 210.752 9.07091L408.137 123.03C409.221 123.718 410.125 124.656 410.771 125.765C411.418 126.875 411.789 128.123 411.854 129.405V322.46C411.899 323.023 411.793 323.588 411.548 324.097C411.304 324.607 410.928 325.042 410.46 325.359C410.063 325.582 409.615 325.698 409.159 325.693ZM208.894 10.3718C208.772 10.3403 208.644 10.3403 208.522 10.3718C208.341 10.5281 208.202 10.7273 208.117 10.9514C208.033 11.1754 208.006 11.417 208.039 11.6541V204.783C208.097 205.738 208.376 206.666 208.853 207.494C209.33 208.323 209.993 209.03 210.789 209.559L408.174 323.519C408.364 323.667 408.587 323.765 408.824 323.804C409.061 323.843 409.304 323.822 409.531 323.742C409.828 323.575 409.996 323.11 409.996 322.46V129.405C409.939 128.453 409.661 127.527 409.183 126.701C408.706 125.875 408.042 125.172 407.245 124.647L209.86 10.7063C209.576 10.5066 209.241 10.3908 208.894 10.3718Z" fill="#2B95FB"/>
<path d="M376.971 278.582V151.539C376.939 150.98 376.776 150.437 376.495 149.952C376.214 149.468 375.824 149.057 375.354 148.751L355.934 137.601C355.042 137.08 354.317 137.489 354.317 138.53V265.499C354.344 266.058 354.505 266.604 354.787 267.089C355.068 267.574 355.461 267.984 355.934 268.286L375.354 279.437C376.246 280.032 376.971 279.604 376.971 278.582Z" fill="#2B95FB"/>
<g opacity="0.3">
<path opacity="0.3" d="M376.971 278.582V151.539C376.939 150.98 376.776 150.437 376.495 149.952C376.214 149.468 375.824 149.057 375.354 148.751L355.934 137.601C355.042 137.08 354.317 137.489 354.317 138.53V265.499C354.344 266.058 354.505 266.604 354.787 267.089C355.068 267.574 355.461 267.984 355.934 268.286L375.354 279.437C376.246 280.032 376.971 279.604 376.971 278.582Z" fill="black"/>
</g>
<path d="M339.226 256.782V190.771C339.194 190.212 339.031 189.668 338.751 189.184C338.47 188.699 338.079 188.288 337.609 187.983L318.17 176.832C317.297 176.33 316.572 176.832 316.572 177.761V243.792C316.605 244.348 316.766 244.89 317.043 245.374C317.321 245.857 317.706 246.27 318.17 246.579L337.609 257.73C338.502 258.232 339.226 257.879 339.226 256.782Z" fill="#2B95FB"/>
<g opacity="0.2">
<path opacity="0.2" d="M339.226 256.782V190.771C339.194 190.212 339.031 189.668 338.751 189.184C338.47 188.699 338.079 188.288 337.609 187.983L318.17 176.832C317.297 176.33 316.572 176.832 316.572 177.761V243.792C316.605 244.348 316.766 244.89 317.043 245.374C317.321 245.857 317.706 246.27 318.17 246.579L337.609 257.73C338.502 258.232 339.226 257.879 339.226 256.782Z" fill="white"/>
</g>
<path d="M301.519 235.001V134.107C301.487 133.548 301.324 133.004 301.043 132.52C300.762 132.036 300.371 131.624 299.902 131.319L280.462 120.168C279.589 119.648 278.864 120.057 278.864 121.098V221.974C278.894 222.531 279.054 223.073 279.332 223.558C279.609 224.042 279.997 224.454 280.462 224.761L299.902 235.912C300.757 236.432 301.519 236.023 301.519 235.001Z" fill="#2B95FB"/>
<g opacity="0.2">
<path opacity="0.2" d="M301.519 235.001V134.107C301.487 133.548 301.324 133.004 301.043 132.52C300.762 132.036 300.371 131.624 299.902 131.319L280.462 120.168C279.589 119.648 278.864 120.057 278.864 121.098V221.974C278.894 222.531 279.054 223.073 279.332 223.558C279.609 224.042 279.997 224.454 280.462 224.761L299.902 235.912C300.757 236.432 301.519 236.023 301.519 235.001Z" fill="black"/>
</g>
<path d="M263.718 213.276V68.7268C263.689 68.1692 263.53 67.6261 263.252 67.1417C262.974 66.6574 262.586 66.2453 262.12 65.9391L242.68 54.7885C241.807 54.2681 241.082 54.7885 241.082 55.7177V200.193C241.115 200.749 241.276 201.291 241.553 201.775C241.831 202.258 242.216 202.671 242.68 202.98L262.12 214.131C263.012 214.652 263.718 214.224 263.718 213.276Z" fill="#2B95FB"/>
<path d="M665.085 236.377C664.825 234.983 658.004 219.112 655.198 212.868L640.981 219.521L646.426 231.991L661.145 243.383C662.577 242.947 663.786 241.975 664.52 240.67C665.254 239.365 665.456 237.827 665.085 236.377Z" fill="#FFA8A7"/>
<path d="M636.763 402.614H625.798V418.597H636.763V402.614Z" fill="#FFA8A7"/>
<path d="M598.137 382.874L587.179 383.251L587.728 399.224L598.687 398.848L598.137 382.874Z" fill="#FFA8A7"/>
<path d="M600.876 173.729C596.908 173.821 593.027 174.916 589.596 176.911C586.165 178.906 583.294 181.737 581.251 185.14C575.192 194.153 564.525 209.56 564.525 209.56L584.503 215.897L600.876 173.729Z" fill="#2B95FB"/>
<g opacity="0.7">
<path opacity="0.7" d="M600.876 173.729C596.908 173.821 593.027 174.916 589.596 176.911C586.165 178.906 583.294 181.737 581.251 185.14C575.192 194.153 564.525 209.56 564.525 209.56L584.503 215.897L600.876 173.729Z" fill="white"/>
</g>
<path d="M636.038 246.728C636.038 257.21 637.394 324.987 637.394 324.987C637.654 327.998 640.479 333.555 639.866 345.133C639.03 360.874 637.673 404.603 637.673 404.603C637.673 404.603 632.525 409.714 625.259 404.603C625.259 404.603 615.316 345.226 613.365 329.633C611.636 316.03 608.737 279.084 608.737 279.084L598.571 322.59C598.571 322.59 600.43 332.811 600.746 340.022C601.062 347.233 598.887 388.936 598.887 388.936C597.109 390.048 595.07 390.675 592.974 390.757C590.878 390.838 588.797 390.371 586.938 389.401C586.938 389.401 578.129 328.481 576.995 321.958C575.861 315.435 584.726 246.728 584.726 246.728H636.038Z" fill="#2B95FB"/>
<path opacity="0.2" d="M636.038 246.728C636.038 257.21 637.394 324.987 637.394 324.987C637.654 327.998 640.479 333.555 639.866 345.133C639.03 360.874 637.673 404.603 637.673 404.603C637.673 404.603 632.525 409.714 625.259 404.603C625.259 404.603 615.316 345.226 613.365 329.633C611.636 316.03 608.737 279.084 608.737 279.084L598.571 322.59C598.571 322.59 600.43 332.811 600.746 340.022C601.062 347.233 598.887 388.936 598.887 388.936C597.109 390.048 595.07 390.675 592.974 390.757C590.878 390.838 588.797 390.371 586.938 389.401C586.938 389.401 578.129 328.481 576.995 321.958C575.861 315.435 584.726 246.728 584.726 246.728H636.038Z" fill="black"/>
<path d="M619.535 174.063C629.366 176.424 641.836 180.401 646.222 189.47C650.608 198.539 657.373 213.239 657.373 213.239L641.093 222.866L636.038 214.169V246.728C628.344 255.091 601.508 258.994 584.708 246.728V193.131C584.708 184.601 589.465 174.324 602.567 173.562L619.535 174.063Z" fill="#2B95FB"/>
<path opacity="0.7" d="M619.535 174.063C629.366 176.424 641.836 180.401 646.222 189.47C650.608 198.539 657.373 213.239 657.373 213.239L641.093 222.866L636.038 214.169V246.728C628.344 255.091 601.508 258.994 584.708 246.728V193.131C584.708 184.601 589.465 174.324 602.567 173.562L619.535 174.063Z" fill="white"/>
<path d="M623.233 130.316C624.115 130.214 625.009 130.315 625.847 130.612C626.684 130.908 627.443 131.392 628.065 132.025C630.146 134.144 629.719 138.084 628.065 147.116L621.635 147.859L623.233 130.316Z" fill="#263238"/>
<path d="M585.86 127.788C584.481 127.805 583.113 127.533 581.846 126.989C579.876 125.855 579.355 128.085 580.433 130.037C581.147 131.429 582.205 132.615 583.506 133.483C584.807 134.352 586.308 134.873 587.867 134.999C587.867 134.72 589.725 129.981 589.725 129.981L585.86 127.788Z" fill="#263238"/>
<path d="M620.222 147.86C621.17 148.436 622.527 146.596 623.698 145.369C624.16 144.842 624.749 144.44 625.409 144.202C626.07 143.964 626.779 143.898 627.472 144.01C628.165 144.121 628.818 144.407 629.37 144.839C629.923 145.272 630.356 145.838 630.63 146.484C632.581 150.591 628.158 156.074 625.556 157.876C624.829 158.505 623.922 158.888 622.964 158.971C622.007 159.055 621.047 158.834 620.222 158.341L619.535 174.063C618.387 176.583 616.631 178.778 614.425 180.452C612.22 182.126 609.633 183.225 606.897 183.653C597.605 184.898 599.557 177.297 602.586 173.562V167.838C600.279 168.338 597.907 168.463 595.561 168.209C594.353 167.893 591.491 164.493 589.632 160.534C587.551 156.167 584.057 148.417 587.179 135.315C590.487 121.247 605.596 120.819 614.628 126.487C623.661 132.156 620.222 147.86 620.222 147.86Z" fill="#FFA8A7"/>
<path d="M620.222 149.458C620.687 149.458 622.527 146.447 623.698 145.369C625.352 143.864 623.233 130.316 623.233 130.316C623.233 130.316 624.887 125.186 621.635 121.767C618.383 118.347 612.101 118.942 607.492 118.775C601.836 118.803 596.233 117.678 591.026 115.467C584.485 112.623 584.001 112.289 583.184 115.169C582.366 118.05 582.069 124.61 585.971 129.015L589.224 130.223C589.224 130.223 590.971 131.765 597.066 132.509C602.701 132.937 608.363 132.831 613.978 132.193C615.744 131.951 616.115 133.661 617.063 138.344C617.918 142.47 618.606 149.439 620.222 149.458Z" fill="#263238"/>
<path d="M623.215 131.375L628.976 128.271C628.792 127.884 628.532 127.539 628.211 127.256C627.89 126.972 627.515 126.757 627.108 126.623C626.701 126.489 626.272 126.44 625.845 126.477C625.419 126.514 625.004 126.638 624.627 126.84C623.853 127.269 623.275 127.98 623.012 128.825C622.749 129.669 622.821 130.583 623.215 131.375Z" fill="#263238"/>
<path d="M602.586 167.838C606.527 167.095 610.391 165.987 614.127 164.53C615.887 163.619 617.326 162.193 618.252 160.441C617.804 162.192 617.008 163.836 615.911 165.273C613.718 168.061 602.586 170.123 602.586 170.123V167.838Z" fill="#F28F8F"/>
<path d="M604.667 145.722C604.66 145.951 604.698 146.18 604.781 146.394C604.864 146.608 604.988 146.803 605.148 146.967C605.307 147.132 605.498 147.263 605.71 147.353C605.921 147.442 606.148 147.488 606.377 147.488C606.753 147.518 607.13 147.432 607.456 147.243C607.783 147.053 608.044 146.769 608.205 146.427C608.366 146.086 608.419 145.703 608.357 145.331C608.295 144.958 608.121 144.614 607.859 144.342C607.596 144.071 607.257 143.886 606.887 143.813C606.516 143.739 606.133 143.78 605.786 143.929C605.439 144.079 605.147 144.331 604.947 144.651C604.747 144.972 604.65 145.345 604.667 145.722Z" fill="#263238"/>
<path d="M606.47 139.255L610.187 141.281C610.444 140.777 610.499 140.194 610.34 139.651C610.181 139.109 609.82 138.648 609.332 138.363C609.088 138.223 608.817 138.135 608.538 138.104C608.258 138.073 607.975 138.101 607.706 138.184C607.438 138.268 607.189 138.406 606.976 138.591C606.764 138.775 606.591 139.001 606.47 139.255Z" fill="#263238"/>
<path d="M604.797 157.338L600.876 158.806C600.964 159.066 601.103 159.307 601.284 159.514C601.466 159.721 601.686 159.89 601.933 160.011C602.181 160.132 602.449 160.202 602.724 160.219C602.999 160.235 603.274 160.197 603.534 160.107C604.059 159.895 604.483 159.489 604.718 158.974C604.953 158.459 604.981 157.873 604.797 157.338Z" fill="#F28F8F"/>
<path d="M589.391 140.686L592.717 138.103C592.561 137.878 592.36 137.687 592.127 137.542C591.894 137.397 591.634 137.3 591.363 137.259C591.092 137.217 590.816 137.231 590.55 137.299C590.284 137.367 590.035 137.489 589.818 137.657C589.37 138.009 589.076 138.521 588.996 139.085C588.917 139.65 589.058 140.223 589.391 140.686Z" fill="#263238"/>
<path d="M590.413 145.239C590.413 145.464 590.457 145.686 590.543 145.893C590.629 146.101 590.755 146.289 590.914 146.448C591.073 146.607 591.261 146.733 591.468 146.819C591.676 146.905 591.898 146.949 592.123 146.949C592.347 146.949 592.57 146.905 592.777 146.819C592.984 146.733 593.173 146.607 593.332 146.448C593.491 146.289 593.616 146.101 593.702 145.893C593.788 145.686 593.833 145.464 593.833 145.239C593.84 145.01 593.801 144.782 593.719 144.568C593.636 144.354 593.511 144.159 593.352 143.994C593.192 143.829 593.001 143.698 592.79 143.609C592.579 143.519 592.352 143.473 592.123 143.474C591.663 143.483 591.225 143.674 590.905 144.005C590.585 144.335 590.408 144.779 590.413 145.239Z" fill="#263238"/>
<path d="M599.129 143.604L598.572 153.918L593.201 152.078L599.129 143.604Z" fill="#F28F8F"/>
<path d="M554.378 205.676L598.2 217.217L611.135 271.613L569.468 259.515L554.378 205.676Z" fill="#2B95FB"/>
<path d="M573.483 241.674C572.711 243.05 571.544 244.164 570.132 244.869C568.721 245.575 567.13 245.841 565.566 245.632L564.934 243.383L573.483 241.674Z" fill="#2B95FB"/>
<path d="M583.277 243.383C583.462 244.833 586.455 247.509 591.491 249.181C597.215 251.04 606.005 250.092 606.005 250.092L605.225 247.379L583.277 243.383Z" fill="#2B95FB"/>
<path opacity="0.43" d="M567.275 213.555L566.904 211.883C566.718 210.953 569.282 210.916 572.665 211.79L579.114 213.462C582.496 214.354 585.377 215.804 585.581 216.733L585.953 218.406L567.275 213.555Z" fill="#455A64"/>
<path d="M564.153 207.255C564.042 206.679 565.083 206.53 566.495 206.921L569.134 207.701C569.134 207.701 568.372 203.984 574.059 205.341C575.576 205.565 577.01 206.177 578.221 207.118C579.433 208.059 580.38 209.297 580.972 210.712L583.704 211.492C585.209 211.92 586.566 212.719 586.752 213.351L587.068 214.392L564.488 208.444L564.153 207.255Z" fill="#37474F"/>
<path d="M567.275 209.058C569.338 209.56 570.193 209.838 570.509 211.251C570.825 212.663 571.011 214.076 571.011 214.076L580.991 216.715C580.991 216.715 580.508 214.652 580.359 213.853C580.21 213.054 580.545 212.57 582.217 212.979L582.347 212.347L566.681 208.37L567.275 209.058Z" fill="#37474F"/>
<path d="M566.922 213.723L566.569 212.05C566.365 211.121 568.929 211.083 572.312 211.957L578.761 213.63C582.143 214.503 585.042 215.953 585.247 216.882L585.6 218.554L566.922 213.723Z" fill="#37474F"/>
<path d="M661.145 243.383L646.426 231.991C646.426 231.991 615.576 237.789 612.101 238.068C608.626 238.347 605.875 234.909 604.556 231.489C603.236 228.07 600.56 228.497 600.56 228.497C600.56 228.497 601.582 232.846 601.917 234.221C602.251 235.596 594.204 236.73 589.577 235.169C584.949 233.608 578.24 235.875 582.385 242.194C586.529 248.512 594.632 249.219 600.244 249.237C602.593 249.214 604.939 249.053 607.269 248.754C609.127 248.531 610.986 248.345 612.714 248.215C624.199 247.397 655.923 245.019 661.145 243.383Z" fill="#FFA8A7"/>
<path d="M558.82 221.584L560.771 228.516C561.143 229.854 566.235 232.232 569.468 233.162C572.702 234.091 576.215 235.02 574.691 239.61C573.278 243.755 567.982 244.703 565.287 244.591C563.472 244.284 561.776 243.482 560.389 242.271C559.002 241.061 557.976 239.49 557.426 237.733C555.567 232.437 556.571 226.769 555.828 223.665C555.084 220.561 557.221 219.744 558.82 221.584Z" fill="#F28F8F"/>
<path d="M625.798 413.189V411.609C624.757 412.074 622.304 421.385 617.955 425.343C614.498 428.502 609.778 432.164 608.663 435.676C607.548 439.189 615.242 441.363 618.475 440.787C622.192 440.118 628.753 437.479 630.388 435.026C632.023 432.572 632.785 428.948 634.105 427.146C635.424 425.343 638.491 423.429 639.216 421.273C639.431 419.33 639.216 417.363 638.584 415.512C638.082 413.561 637.524 411.442 636.874 411.609C636.874 411.851 636.874 412.817 636.874 412.817C635.28 414.051 633.314 414.707 631.299 414.676C629.682 414.731 625.779 414.416 625.798 413.189Z" fill="#37474F"/>
<path d="M587.718 395.813C587.142 395.813 586.678 396.63 585.432 397.987C583.552 399.887 581.366 401.457 578.965 402.633C574.858 404.696 566.885 407.855 563.261 409.491C560.994 410.513 561.105 413.208 563.447 414.787C565.789 416.367 571.42 417.463 578.185 415.94C581.901 415.122 586.678 411.721 589.707 411.888C592.736 412.055 598.423 412.037 600.672 410.494C602.92 408.952 602.01 405.644 601.378 402.8C600.746 399.957 599.705 394.976 598.683 395.181V396.166C597.364 398.154 590.636 398.972 587.737 397.504L587.718 395.813Z" fill="#37474F"/>
<path d="M112.534 389.14L119.391 398.674C116.265 400.118 112.855 400.842 109.412 400.793C103.279 401.034 101.588 398.934 101.365 398.526C100.324 396.314 101.941 392.3 102.387 388.843L112.534 389.14Z" fill="#37474F"/>
<path d="M101.365 379.551C101.365 379.551 102.405 388.211 102.48 390.07C102.554 391.928 110.936 392.542 112.534 389.141L112.775 378.547L101.365 379.551Z" fill="#F28F8F"/>
<path d="M101.365 208.927C95.6406 217.848 90.2139 225.653 89.0245 235.726C86.5714 256.894 94.5998 281.091 96.3282 296.739C93.0785 301.204 91.1993 306.518 90.9201 312.034C90.9201 318.501 101.365 379.551 101.365 379.551C101.365 379.551 108.947 381.874 112.775 378.547L119.949 266.242L116.232 252.564L101.365 208.927Z" fill="#2B95FB"/>
<path opacity="0.5" d="M101.365 208.927C95.6406 217.848 90.2139 225.653 89.0245 235.726C86.5714 256.894 94.5998 281.091 96.3282 296.739C93.0785 301.204 91.1993 306.518 90.9201 312.034C90.9201 318.501 101.365 379.551 101.365 379.551C101.365 379.551 108.947 381.874 112.775 378.547L119.949 266.242L116.232 252.564L101.365 208.927Z" fill="white"/>
<path d="M154.274 167.094L192.019 185.214L169.365 236.154L134.166 215.841L154.274 167.094Z" fill="#2B95FB"/>
<path d="M187.578 186.143L168.027 229.556L140.931 213.946L156.3 171.22L187.578 186.143Z" fill="#2B95FB"/>
<path d="M156.3 171.22L187.578 186.143L166.466 230.021L136.879 213.128L156.3 171.22Z" fill="white"/>
<path d="M163.102 177.501L163.827 175.94C164.236 175.085 166.819 175.438 169.606 176.758L174.94 179.285C177.728 180.586 179.642 182.37 179.252 183.225L178.508 184.786L163.102 177.501Z" fill="#E0E0E0"/>
<path d="M88.5599 185.4C85.8094 193.242 80.3642 205.694 82.1111 208.203C83.8581 210.712 94.3397 210.173 100.175 209.95C107.609 209.671 113.779 209.374 113.779 209.374L112.534 196.365H101.978L106.624 183.207L88.5599 185.4Z" fill="#F28F8F"/>
<path d="M99.1344 157.523C95.2875 163.842 87.5192 186.143 87.5192 186.143C89.6775 188.591 92.5403 190.311 95.7149 191.068C98.4873 191.919 101.433 192.034 104.264 191.403L112.85 170.03L99.1344 157.523Z" fill="#2B95FB"/>
<path opacity="0.4" d="M99.1344 157.523C95.2875 163.842 87.5192 186.143 87.5192 186.143C89.6775 188.591 92.5403 190.311 95.7149 191.068C98.4873 191.919 101.433 192.034 104.264 191.403L112.85 170.03L99.1344 157.523Z" fill="black"/>
<path d="M137.548 161.5C144.295 163.526 148.402 163.879 155.854 175.345C163.306 186.812 179.623 209.559 181.24 212.291C183.489 216.008 184.455 220.617 182.523 224.111C180.59 227.605 175.442 225.969 168.045 219.446C160.649 212.923 146.71 195.435 146.71 195.435C146.71 195.435 132.177 179.062 137.548 161.5Z" fill="#FFA8A7"/>
<path d="M132.159 146.633L130.338 162.745L114.429 164.585L116.734 143.194L132.159 146.633Z" fill="#FFA8A7"/>
<path d="M98.1309 123.086C99.4504 108.219 107.423 102.067 113.76 100.599C126.342 97.6255 137.567 102.197 142.659 111.025C143.997 113.348 146.246 122.045 141.767 127.175C137.288 132.304 98.1309 123.086 98.1309 123.086Z" fill="#263238"/>
<path d="M143.904 128.327C143.904 128.327 147.212 133.902 146.71 134.534C145.831 135.045 144.869 135.397 143.867 135.575L143.904 128.327Z" fill="#F28F8F"/>
<path d="M133.869 110.393C137.288 112.419 143.161 116.117 143.96 129.126C144.796 142.488 142.25 146.595 140.243 148.231C138.961 149.346 132.382 148.974 129.092 147.766C125.06 146.242 116.083 142.098 112.218 134.999C107.758 126.654 107.367 115.857 113.277 111.973C116.29 109.976 119.764 108.783 123.368 108.507C126.972 108.23 130.586 108.88 133.869 110.393Z" fill="#FFA8A7"/>
<path d="M134.872 111.062C134.872 111.062 137.232 123.346 133.144 130.78C133.144 130.78 131.285 125.93 127.123 127.063C122.96 128.197 123.015 133.661 126.082 136.634C126.859 137.48 127.859 138.09 128.967 138.392C130.075 138.695 131.246 138.678 132.345 138.344C131.767 142.17 129.983 145.712 127.253 148.454C122.919 149.457 118.389 149.214 114.187 147.754C109.985 146.294 106.281 143.676 103.502 140.203C94.2096 129.163 96.6442 110.468 111.382 106.453C126.119 102.439 134.872 111.062 134.872 111.062Z" fill="#263238"/>
<path d="M119.001 394.102C119.001 394.102 127.327 393.563 133.07 392.839C138.812 392.114 143.365 394.92 142.009 397.299C140.652 399.678 137.493 401.629 132.568 403.283C128.349 404.714 123.276 405.736 118.89 407C114.504 408.264 111.456 409.899 108.91 409.026C106.066 408.041 104.84 406.907 105.081 404.826C105.702 401.865 106.471 398.937 107.386 396.054L119.001 394.102Z" fill="#37474F"/>
<path d="M109.802 384.885L106.81 398.024C106.81 398.024 106.531 399.622 113.37 400.644C120.209 401.666 130.951 397.076 132.791 396.128C134.631 395.181 134.835 393.341 128.108 393.712C121.38 394.084 119.001 394.103 119.001 394.103L121.25 388.267L109.802 384.885Z" fill="#FFA8A7"/>
<path d="M119.949 266.242L116.232 252.564C109.115 250.69 102.251 247.963 95.7893 244.442C95.7893 244.442 99.6548 251.486 110.657 255.333L116.437 272.914L116.938 313.13L119.949 266.242Z" fill="#2B95FB"/>
<path d="M101.365 208.927C98.2982 213.927 90.9759 222.494 92.5184 230.708C94.3769 240.688 99.7849 247.676 116.176 252.564L131.564 308.317C131.564 308.317 123.554 315.751 121.101 322.943C118.648 330.135 109.802 384.94 109.802 384.94C109.802 384.94 112.534 389.401 121.176 388.323C121.176 388.323 151.301 319.56 153.438 315.082C155.988 310.572 156.888 305.315 155.984 300.214C155.036 292.985 144.833 214.057 144.833 214.057L101.365 208.927Z" fill="#2B95FB"/>
<path opacity="0.5" d="M101.365 208.927C98.2982 213.927 90.9759 222.494 92.5184 230.708C94.3769 240.688 99.7849 247.676 116.176 252.564L131.564 308.317C131.564 308.317 123.554 315.751 121.101 322.943C118.648 330.135 109.802 384.94 109.802 384.94C109.802 384.94 112.534 389.401 121.176 388.323C121.176 388.323 151.301 319.56 153.438 315.082C155.988 310.572 156.888 305.315 155.984 300.214C155.036 292.985 144.833 214.057 144.833 214.057L101.365 208.927Z" fill="white"/>
<path d="M98.5769 158.675C99.7663 155.516 103.558 152.877 106.977 153.806C117.7 156.724 134.37 160.571 137.548 161.5C137.548 161.5 136.136 185.66 148.476 192.871C147.9 197.461 144.759 213.927 144.759 213.927C144.759 213.927 129.892 221.137 117.7 217.644C105.509 214.15 101.365 208.983 101.365 208.983L107.479 199.022C106.178 195.77 101.123 184.786 97.8707 174.565C96.6747 169.301 96.9186 163.812 98.5769 158.675Z" fill="#2B95FB"/>
<path opacity="0.2" d="M98.5769 158.675C99.7663 155.516 103.558 152.877 106.977 153.806C117.7 156.724 134.37 160.571 137.548 161.5C137.548 161.5 136.136 185.66 148.476 192.871C147.9 197.461 144.759 213.927 144.759 213.927C144.759 213.927 129.892 221.137 117.7 217.644C105.509 214.15 101.365 208.983 101.365 208.983L107.479 199.022C106.178 195.77 101.123 184.786 97.8707 174.565C96.6747 169.301 96.9186 163.812 98.5769 158.675Z" fill="black"/>
<path opacity="0.25" d="M105.806 195.045C110.888 198.102 116.216 200.731 121.733 202.906C116.726 202.81 111.825 201.455 107.479 198.966L105.806 195.045Z" fill="#2B95FB"/>
<path d="M108.966 103.907C108.966 103.907 103.873 95.2282 91.4033 97.4769C78.9332 99.7256 73.8782 112.958 74.0641 121.339C74.2499 129.721 77.0562 135.575 69.5481 145.499C68.0682 147.456 67.0255 149.708 66.4901 152.102C65.9548 154.497 65.9394 156.978 66.445 159.379C66.9505 161.78 67.9653 164.045 69.4207 166.02C70.8762 167.995 72.7384 169.635 74.8818 170.83C84.8988 176.405 87.3334 166.704 85.0103 158.415C82.3341 148.919 92.2768 147.265 94.9344 140.072C97.5919 132.88 92.3697 117.771 95.7149 112.642C99.4318 107.066 104.45 107.847 106.866 109.743L108.966 103.907Z" fill="#263238"/>
<path d="M137.548 161.5C140.881 162.208 144.137 163.241 147.268 164.585C151.357 166.592 167.302 191.625 167.302 191.625C167.302 191.625 166.168 201.048 153.122 204.783L145.41 195.045C145.41 195.045 134.073 178.114 137.548 161.5Z" fill="#2B95FB"/>
<path opacity="0.1" d="M137.548 161.5C140.881 162.208 144.137 163.241 147.268 164.585C151.357 166.592 167.302 191.625 167.302 191.625C167.302 191.625 166.168 201.048 153.122 204.783L145.41 195.045C145.41 195.045 134.073 178.114 137.548 161.5Z" fill="black"/>
<path d="M147.677 197.981C144.25 193.993 141.665 189.353 140.076 184.34C140.076 184.34 140.076 195.157 147.194 200.75L147.677 197.981Z" fill="#2B95FB"/>
<path opacity="0.4" d="M147.677 197.981C144.25 193.993 141.665 189.353 140.076 184.34C140.076 184.34 140.076 195.157 147.194 200.75L147.677 197.981Z" fill="black"/>
<path d="M164.459 170.774C164.7 170.235 165.834 170.272 166.986 170.774L169.068 171.796C169.068 171.796 170.684 168.432 175.516 170.458C180.348 172.484 178.862 176.368 178.862 176.368L181.073 177.502C182.3 178.115 183.117 179.063 182.932 179.62L182.56 180.605L163.975 171.685L164.459 170.774Z" fill="#455A64"/>
<path d="M166.354 172.892C168.101 173.673 168.77 174.045 168.213 175.383C167.655 176.721 166.856 178.003 166.856 178.003L175.07 181.943C175.07 181.943 175.944 180.085 176.315 179.267C176.687 178.449 177.356 178.133 178.657 178.765L179.215 178.208L166.206 172.168L166.354 172.892Z" fill="#455A64"/>
<path d="M162.953 177.037L163.697 175.476C164.105 174.602 166.689 174.974 169.476 176.293L174.81 178.821C177.579 180.122 179.512 181.887 179.103 182.761L178.36 184.322L162.953 177.037Z" fill="#455A64"/>
</svg>
