<svg width="684" height="535" viewBox="0 0 684 535" fill="none" xmlns="http://www.w3.org/2000/svg">
<path opacity="0.9" d="M142.753 297.872C214.323 429.985 309.214 244.308 388.783 243.476C455.269 242.786 445.734 329.033 530.3 280.123C568.771 257.864 587.956 183.063 580.56 144.865C531.32 -110.702 20.1039 71.6282 142.753 297.872Z" fill="#6CBAFE" fill-opacity="0.49"/>
<path d="M359 535C512.77 535 637.426 527.722 637.426 518.744C637.426 509.767 512.77 502.489 359 502.489C205.23 502.489 80.574 509.767 80.574 518.744C80.574 527.722 205.23 535 359 535Z" fill="#F5F5F5"/>
<path d="M526.524 201.601C526.294 205.637 525.806 209.342 525.26 213.19C524.715 217.039 523.925 220.772 523.092 224.535C521.382 232.211 518.845 239.679 515.524 246.807C514.352 249.049 512.74 251.031 510.785 252.637C509.18 254.003 507.471 255.242 505.673 256.342C502.319 258.397 498.82 260.207 495.205 261.756C488.187 264.764 480.947 267.227 473.55 269.123L471.769 263.795C475.072 262.359 478.461 260.765 481.735 259.142C485.009 257.52 488.283 255.883 491.414 254.102C494.509 252.406 497.496 250.521 500.36 248.459C501.679 247.512 502.927 246.471 504.094 245.342C504.986 244.526 505.721 243.552 506.262 242.47C507.574 239.259 508.7 235.974 509.637 232.634C510.556 229.202 511.403 225.741 512.121 222.223C512.839 218.704 513.413 215.143 513.93 211.567C514.447 207.992 514.864 204.387 515.18 200.941L526.524 201.601Z" fill="#E58A7B"/>
<path d="M518.784 188.117C514.203 189.281 511.001 208.135 511.001 208.135L523.623 216.751C523.623 216.751 535.729 197.739 532.239 192.713C528.534 187.356 525.476 186.351 518.784 188.117Z" fill="#6B65FF"/>
<path opacity="0.5" d="M518.784 188.117C514.203 189.281 511.001 208.135 511.001 208.135L523.623 216.751C523.623 216.751 535.729 197.739 532.239 192.713C528.534 187.356 525.476 186.351 518.784 188.117Z" fill="black"/>
<path d="M519.2 192.267L515.682 211.266L522.776 216.077L519.2 192.267Z" fill="#6B65FF"/>
<path opacity="0.7" d="M519.2 192.267L515.682 211.266L522.776 216.077L519.2 192.267Z" fill="black"/>
<path d="M474.368 263.508L466.485 255.524L465.451 266.782C465.451 266.782 471.353 270.774 475.503 268.634L474.368 263.508Z" fill="#E58A7B"/>
<path d="M457.208 254.332L456.849 263.795L465.451 266.782L466.485 255.524L457.208 254.332Z" fill="#E58A7B"/>
<path d="M543.569 505.303H532.455L531.708 479.57H542.822L543.569 505.303Z" fill="#E58A7B"/>
<path d="M641.633 453.693L633.161 460.888L613.775 443.584L622.248 436.389L641.633 453.693Z" fill="#E58A7B"/>
<path d="M630.849 460.026L639.02 450.62C639.156 450.453 639.349 450.343 639.561 450.311C639.774 450.279 639.99 450.328 640.169 450.448L648.541 455.876C648.747 456.019 648.921 456.205 649.05 456.421C649.18 456.636 649.262 456.876 649.292 457.126C649.322 457.376 649.298 457.629 649.223 457.869C649.148 458.109 649.023 458.33 648.857 458.518C645.985 461.749 644.362 463.156 640.758 467.292C638.532 469.834 635.545 473.783 632.486 477.344C629.428 480.906 625.78 478.005 626.742 476.267C631.05 468.484 630.016 465.741 630.088 461.907C630.105 461.208 630.375 460.539 630.849 460.026Z" fill="#263238"/>
<path d="M532.067 504.04H544.56C544.775 504.037 544.984 504.113 545.148 504.253C545.312 504.393 545.419 504.588 545.45 504.801L546.886 514.681C546.913 514.93 546.886 515.181 546.808 515.419C546.731 515.657 546.604 515.876 546.436 516.062C546.268 516.248 546.062 516.396 545.833 516.497C545.604 516.598 545.356 516.649 545.106 516.648C540.798 516.648 538.644 516.318 533.158 516.318C529.784 516.318 522.79 516.677 518.138 516.677C513.485 516.677 513.212 512.053 515.165 511.636C523.867 509.769 527.299 507.184 530.229 504.715C530.748 504.288 531.395 504.051 532.067 504.04V504.04Z" fill="#263238"/>
<path d="M531.708 479.584L532.096 492.853H543.21L542.837 479.584H531.708Z" fill="#CF6F64"/>
<path d="M622.262 436.389L613.79 443.584L623.784 452.501L632.256 445.307L622.262 436.389Z" fill="#CF6F64"/>
<path d="M518.784 188.117C518.784 188.117 513.499 189.984 524.097 255.193H569.231C568.469 236.827 568.455 225.497 577.229 187.787C570.914 186.475 564.512 185.626 558.073 185.245C551.246 184.749 544.393 184.749 537.567 185.245C528.764 186.021 518.784 188.117 518.784 188.117Z" fill="#6B65FF"/>
<path opacity="0.5" d="M518.784 188.117C518.784 188.117 513.499 189.984 524.097 255.193H569.231C568.469 236.827 568.455 225.497 577.229 187.787C570.914 186.475 564.512 185.626 558.073 185.245C551.246 184.749 544.393 184.749 537.567 185.245C528.764 186.021 518.784 188.117 518.784 188.117Z" fill="black"/>
<path d="M544.244 189.927L548.322 198.256C548.322 198.256 565.425 193.029 563.185 185.504L557.441 184.843L544.244 189.927Z" fill="#6B65FF"/>
<path opacity="0.6" d="M544.244 189.927L548.322 198.256C548.322 198.256 565.425 193.029 563.185 185.504L557.441 184.843L544.244 189.927Z" fill="#FAFAFA"/>
<path d="M543.928 189.151L538.184 197.652C538.184 197.652 526.007 192.368 534.407 185.26L537.983 184.843L543.928 189.151Z" fill="#6B65FF"/>
<path opacity="0.6" d="M543.928 189.151L538.184 197.652C538.184 197.652 526.007 192.368 534.407 185.26L537.983 184.843L543.928 189.151Z" fill="#FAFAFA"/>
<path d="M562.266 127.805C567.536 122.736 562.481 98.9124 576.353 106.796C593.987 116.848 605.375 103.694 599.487 98.697C611.865 99.573 610.659 113.66 605.504 121.228C592.422 140.485 566.028 122.176 565.87 131.955C565.712 141.734 562.266 127.805 562.266 127.805Z" fill="#263238"/>
<path d="M554.655 124.373C560.701 119.591 581.35 123.569 567.191 142.826L554.655 124.373Z" fill="#6B65FF"/>
<path opacity="0.3" d="M554.655 124.373C560.701 119.591 581.35 123.569 567.191 142.826L554.655 124.373Z" fill="black"/>
<path d="M557.843 133.319C575.448 135.947 576.683 164.552 549.356 168.99L557.843 133.319Z" fill="#263238"/>
<path d="M556.034 162.14C554.741 168.731 553.449 180.808 558.073 185.217C558.073 185.217 556.263 191.894 544.014 191.894C530.545 191.894 537.567 185.217 537.567 185.217C544.919 183.45 544.747 178.037 543.454 172.881L556.034 162.14Z" fill="#E58A7B"/>
<path d="M550.907 166.577L543.454 172.924C543.782 174.117 543.993 175.339 544.086 176.572C546.958 176.155 550.764 173.068 551.065 170.139C551.23 168.952 551.177 167.745 550.907 166.577Z" fill="#CF6F64"/>
<path d="M528.247 154.5C522.173 146.674 514.26 126.484 537.94 124.545L528.247 154.5Z" fill="#263238"/>
<path d="M555.589 145.31C557.025 156.252 557.886 160.848 553.521 167.453C546.958 177.405 533.201 176.816 528.52 166.534C524.284 157.286 522.618 140.959 532.34 134.583C534.478 133.166 536.944 132.32 539.502 132.124C542.06 131.929 544.625 132.39 546.955 133.465C549.284 134.54 551.3 136.192 552.811 138.265C554.322 140.338 555.278 142.763 555.589 145.31V145.31Z" fill="#E58A7B"/>
<path d="M524.14 255.136C524.14 255.136 515.38 340.737 516.098 374.626C516.86 409.88 529.784 490.283 529.784 490.283H544.804C544.804 490.283 542.42 411.934 543.756 377.326C545.192 339.573 557.197 255.136 557.197 255.136H524.14Z" fill="#6B65FF"/>
<path opacity="0.6" d="M524.14 255.136C524.14 255.136 515.38 340.737 516.098 374.626C516.86 409.88 529.784 490.283 529.784 490.283H544.804C544.804 490.283 542.42 411.934 543.756 377.326C545.192 339.573 557.197 255.136 557.197 255.136H524.14Z" fill="#FAFAFA"/>
<path d="M546.068 490.814H528.434L527.141 485.199L546.886 484.51L546.068 490.814Z" fill="#6B65FF"/>
<path opacity="0.4" d="M546.068 490.814H528.434L527.141 485.199L546.886 484.51L546.068 490.814Z" fill="#FAFAFA"/>
<path d="M543.569 276.432C532.483 298.733 541.343 339.415 545.264 354.551C547.274 331.819 550.663 304.032 553.305 283.626C551.625 272.081 548.681 266.15 543.569 276.432Z" fill="#6B65FF"/>
<path opacity="0.4" d="M543.569 276.432C532.483 298.733 541.343 339.415 545.264 354.551C547.274 331.819 550.663 304.032 553.305 283.626C551.625 272.081 548.681 266.15 543.569 276.432Z" fill="#FAFAFA"/>
<path d="M536.016 255.136C536.016 255.136 546.24 344.169 553.966 372.702C563.127 406.635 620.022 452.286 620.022 452.286L631.581 442.463C631.581 442.463 590.311 392.878 583.303 374.971C568.34 336.831 581.149 279.993 569.187 255.107L536.016 255.136Z" fill="#6B65FF"/>
<path opacity="0.6" d="M536.016 255.136C536.016 255.136 546.24 344.169 553.966 372.702C563.127 406.635 620.022 452.286 620.022 452.286L631.581 442.463C631.581 442.463 590.311 392.878 583.303 374.971C568.34 336.831 581.149 279.993 569.187 255.107L536.016 255.136Z" fill="#FAFAFA"/>
<path d="M633.463 441.947L619.131 454.11L613.79 450.907L629.988 435.829L633.463 441.947Z" fill="#6B65FF"/>
<path opacity="0.4" d="M633.463 441.947L619.131 454.11L613.79 450.907L629.988 435.829L633.463 441.947Z" fill="#FAFAFA"/>
<path d="M539.792 151.557C539.965 152.433 539.634 153.237 539.06 153.352C538.486 153.466 537.883 152.835 537.71 151.916C537.538 150.997 537.868 150.235 538.443 150.121C539.017 150.006 539.62 150.666 539.792 151.557Z" fill="#263238"/>
<path d="M529.884 153.51C530.056 154.386 529.726 155.19 529.152 155.305C528.577 155.419 527.974 154.788 527.802 153.869C527.63 152.95 527.945 152.188 528.52 152.074C529.094 151.959 529.683 152.619 529.884 153.51Z" fill="#263238"/>
<path d="M528.764 152.117L526.524 151.916C526.524 151.916 527.931 153.352 528.764 152.117Z" fill="#263238"/>
<path d="M532.756 154.5C532.368 156.66 531.687 158.757 530.731 160.733C531.24 160.967 531.794 161.089 532.354 161.089C532.914 161.089 533.468 160.967 533.977 160.733L532.756 154.5Z" fill="#DF5753"/>
<path d="M537.725 163.562C537.656 163.562 537.59 163.534 537.542 163.486C537.493 163.437 537.466 163.372 537.466 163.303C537.466 163.235 537.493 163.169 537.542 163.12C537.59 163.072 537.656 163.045 537.725 163.045C538.824 162.853 539.862 162.404 540.755 161.735C541.649 161.067 542.372 160.197 542.865 159.196C542.879 159.164 542.898 159.135 542.922 159.11C542.947 159.086 542.976 159.066 543.008 159.053C543.04 159.04 543.074 159.033 543.109 159.033C543.144 159.033 543.178 159.039 543.21 159.052C543.242 159.066 543.271 159.085 543.296 159.11C543.32 159.134 543.34 159.163 543.353 159.195C543.367 159.227 543.373 159.261 543.374 159.296C543.374 159.331 543.367 159.365 543.354 159.397C542.834 160.484 542.06 161.429 541.098 162.154C540.135 162.879 539.013 163.362 537.825 163.562H537.725Z" fill="#263238"/>
<path d="M528.448 138.46C528.448 138.46 537.797 152.634 555.029 154.5C555.029 154.5 572.821 138.345 561.878 127.144C544.158 109.022 523.02 132.113 528.448 138.46Z" fill="#263238"/>
<path d="M559.336 153.768C559.313 154.823 559.08 155.863 558.651 156.826C558.222 157.79 557.606 158.659 556.838 159.383C554.77 161.321 552.444 159.785 551.927 157.157C551.467 154.788 551.927 150.939 554.583 149.977C555.157 149.784 555.769 149.738 556.364 149.844C556.96 149.949 557.519 150.201 557.992 150.578C558.465 150.955 558.836 151.445 559.07 152.002C559.305 152.559 559.397 153.166 559.336 153.768Z" fill="#E58A7B"/>
<path d="M542.061 147.765C541.93 147.767 541.803 147.721 541.702 147.636C541.222 147.183 540.641 146.849 540.007 146.662C539.374 146.475 538.705 146.44 538.055 146.559C537.988 146.579 537.918 146.584 537.849 146.576C537.779 146.568 537.713 146.545 537.652 146.51C537.592 146.476 537.539 146.429 537.497 146.373C537.455 146.317 537.425 146.254 537.409 146.186C537.374 146.051 537.393 145.907 537.463 145.786C537.533 145.665 537.647 145.577 537.782 145.54C538.601 145.372 539.449 145.403 540.253 145.63C541.058 145.858 541.796 146.275 542.406 146.846C542.504 146.946 542.559 147.08 542.559 147.22C542.559 147.36 542.504 147.494 542.406 147.593C542.318 147.693 542.194 147.755 542.061 147.765V147.765Z" fill="#263238"/>
<path d="M524.341 149.819C524.275 149.834 524.206 149.834 524.14 149.819C524.075 149.794 524.016 149.756 523.966 149.707C523.916 149.658 523.876 149.6 523.849 149.536C523.823 149.471 523.809 149.402 523.81 149.332C523.81 149.263 523.825 149.194 523.853 149.13C524.155 148.35 524.64 147.655 525.268 147.103C525.895 146.551 526.646 146.157 527.457 145.956C527.524 145.942 527.594 145.941 527.661 145.954C527.728 145.968 527.792 145.995 527.849 146.034C527.905 146.073 527.953 146.123 527.99 146.181C528.026 146.24 528.05 146.305 528.06 146.373C528.075 146.441 528.075 146.511 528.062 146.579C528.049 146.647 528.022 146.712 527.983 146.77C527.944 146.827 527.894 146.877 527.836 146.915C527.778 146.952 527.712 146.978 527.644 146.99C526.998 147.156 526.401 147.473 525.901 147.915C525.402 148.357 525.015 148.911 524.772 149.532C524.732 149.613 524.671 149.683 524.595 149.733C524.519 149.784 524.432 149.813 524.341 149.819Z" fill="#263238"/>
<path d="M593.068 243.16V241.882C593.068 240.158 592.824 238.507 592.652 236.841C591.782 230.392 590.409 224.02 588.545 217.785C586.742 211.61 584.594 205.54 582.111 199.605L571.528 203.913C573.668 209.456 575.692 215.301 577.545 221.045C578.435 223.917 579.282 226.789 580.015 229.661C580.747 232.533 581.451 235.405 581.953 238.277L582.255 240.187C581.264 239.857 580.245 239.498 579.211 239.067C573.783 236.856 568.24 233.983 562.769 231.226L559.595 235.865C564.464 240.093 569.713 243.862 575.276 247.123C576.771 247.989 578.32 248.756 579.914 249.421C580.808 249.808 581.73 250.13 582.671 250.383C583.232 250.541 583.803 250.661 584.38 250.742C585.148 250.84 585.925 250.84 586.692 250.742C587.959 250.63 589.171 250.173 590.196 249.421C591.472 248.472 592.372 247.104 592.738 245.558C592.955 244.777 593.066 243.97 593.068 243.16V243.16ZM585.342 241.02H585.601C585.759 241.006 585.558 241.034 585.271 241.02H585.342Z" fill="#E58A7B"/>
<path d="M577.272 187.73C581.795 189.166 587.224 204.675 587.224 204.675L569.69 217.225C569.69 217.225 563.285 204.229 565.195 198.385C567.119 192.296 572.074 186.164 577.272 187.73Z" fill="#6B65FF"/>
<path opacity="0.5" d="M577.272 187.73C581.795 189.166 587.224 204.675 587.224 204.675L569.69 217.225C569.69 217.225 563.285 204.229 565.195 198.385C567.119 192.296 572.074 186.164 577.272 187.73Z" fill="black"/>
<path d="M627.805 465.382C627.576 465.376 627.352 465.318 627.148 465.214C626.944 465.109 626.766 464.961 626.627 464.779C626.518 464.665 626.441 464.523 626.406 464.369C626.371 464.215 626.378 464.054 626.426 463.903C626.828 462.539 630.734 461.433 631.122 461.318C631.173 461.303 631.228 461.303 631.279 461.318C631.33 461.334 631.375 461.364 631.409 461.404C631.435 461.448 631.448 461.498 631.448 461.548C631.448 461.598 631.435 461.648 631.409 461.692C630.72 462.998 629.341 465.21 627.949 465.382H627.805ZM630.677 462.008C629.14 462.496 627.159 463.343 626.943 464.061C626.921 464.126 626.918 464.197 626.936 464.263C626.954 464.33 626.992 464.389 627.044 464.434C627.142 464.576 627.276 464.69 627.433 464.763C627.589 464.836 627.762 464.866 627.934 464.851C628.667 464.765 629.672 463.716 630.663 462.008H630.677Z" fill="#6B65FF"/>
<path d="M629.442 462.051C628.294 462.169 627.144 461.846 626.226 461.146C626.093 460.984 626.02 460.781 626.02 460.572C626.02 460.362 626.093 460.159 626.226 459.997C626.34 459.833 626.487 459.695 626.657 459.591C626.828 459.487 627.018 459.42 627.216 459.394C628.796 459.207 631.237 461.275 631.338 461.376C631.375 461.403 631.403 461.441 631.418 461.485C631.434 461.528 631.436 461.575 631.424 461.62C631.418 461.666 631.398 461.71 631.367 461.746C631.337 461.781 631.297 461.808 631.252 461.821C630.663 461.986 630.053 462.063 629.442 462.051ZM627.489 459.897H627.317C627.19 459.911 627.067 459.953 626.958 460.02C626.849 460.087 626.756 460.177 626.685 460.284C626.498 460.557 626.57 460.715 626.685 460.816C627.159 461.433 629.342 461.663 630.677 461.433C629.782 460.653 628.697 460.123 627.532 459.897H627.489Z" fill="#6B65FF"/>
<path d="M527.903 505.964C526.95 506.051 525.997 505.807 525.203 505.275C525.024 505.117 524.887 504.918 524.805 504.695C524.722 504.472 524.696 504.232 524.729 503.996C524.738 503.851 524.783 503.71 524.861 503.587C524.939 503.464 525.047 503.363 525.174 503.293C526.538 502.561 530.918 504.815 531.464 505.074C531.512 505.099 531.552 505.139 531.578 505.188C531.603 505.236 531.614 505.292 531.607 505.346C531.602 505.399 531.579 505.449 531.543 505.488C531.507 505.527 531.459 505.553 531.406 505.562C530.254 505.81 529.081 505.945 527.903 505.964V505.964ZM525.921 503.666C525.752 503.656 525.584 503.69 525.433 503.767C525.381 503.791 525.337 503.83 525.307 503.878C525.276 503.926 525.26 503.982 525.26 504.04C525.232 504.195 525.245 504.355 525.298 504.503C525.351 504.652 525.442 504.784 525.562 504.887C526.237 505.49 528.061 505.605 530.53 505.188C529.091 504.423 527.533 503.908 525.921 503.666V503.666Z" fill="#6B65FF"/>
<path d="M531.32 505.576H531.205C529.884 504.973 527.271 502.589 527.472 501.268C527.472 500.967 527.73 500.593 528.463 500.521C528.721 500.493 528.982 500.519 529.229 500.598C529.477 500.678 529.705 500.808 529.899 500.981C531.335 502.144 531.564 505.131 531.564 505.289C531.572 505.333 531.566 505.378 531.548 505.419C531.53 505.459 531.501 505.494 531.464 505.519C531.423 505.553 531.373 505.573 531.32 505.576V505.576ZM528.678 501.067H528.52C528.032 501.067 528.003 501.297 527.989 501.369C527.874 502.115 529.64 504.011 530.99 504.829C530.89 503.561 530.386 502.359 529.554 501.397C529.315 501.198 529.017 501.082 528.707 501.067H528.678Z" fill="#6B65FF"/>
<path d="M564.348 232.504L560.614 221.088L554.669 230.695C554.669 230.695 558.173 236.913 562.797 236.812L564.348 232.504Z" fill="#E58A7B"/>
<path d="M552.817 215.89L548.279 224.204L554.626 230.695L560.571 221.088L552.817 215.89Z" fill="#E58A7B"/>
<path d="M538.701 150.164L536.475 149.963C536.475 149.963 537.883 151.399 538.701 150.164Z" fill="#263238"/>
<path d="M569.905 252.479L571.069 256.529C571.227 256.83 570.853 257.161 570.322 257.161H523.882C523.465 257.161 523.135 256.96 523.106 256.701L522.704 252.738C522.704 252.451 523.02 252.221 523.465 252.221H569.173C569.307 252.2 569.444 252.213 569.572 252.258C569.7 252.303 569.814 252.379 569.905 252.479V252.479Z" fill="#263238"/>
<path d="M563.774 257.592H564.994C565.238 257.592 565.425 257.462 565.411 257.319L564.836 252.063C564.836 251.905 564.607 251.79 564.362 251.79H563.142C562.898 251.79 562.711 251.905 562.725 252.063L563.3 257.319C563.314 257.462 563.53 257.592 563.774 257.592Z" fill="#6B65FF"/>
<path opacity="0.6" d="M563.774 257.592H564.994C565.238 257.592 565.425 257.462 565.411 257.319L564.836 252.063C564.836 251.905 564.607 251.79 564.362 251.79H563.142C562.898 251.79 562.711 251.905 562.725 252.063L563.3 257.319C563.314 257.462 563.53 257.592 563.774 257.592Z" fill="#FAFAFA"/>
<path d="M527.314 257.592H528.534C528.778 257.592 528.965 257.462 528.951 257.319L528.376 252.063C528.376 251.905 528.147 251.79 527.902 251.79H526.682C526.438 251.79 526.251 251.905 526.265 252.063L526.84 257.319C526.854 257.462 527.012 257.592 527.314 257.592Z" fill="#6B65FF"/>
<path opacity="0.6" d="M527.314 257.592H528.534C528.778 257.592 528.965 257.462 528.951 257.319L528.376 252.063C528.376 251.905 528.147 251.79 527.902 251.79H526.682C526.438 251.79 526.251 251.905 526.265 252.063L526.84 257.319C526.854 257.462 527.012 257.592 527.314 257.592Z" fill="#FAFAFA"/>
<path d="M545.537 257.592H546.772C547.016 257.592 547.202 257.462 547.174 257.319L546.599 252.063C546.599 251.905 546.369 251.79 546.125 251.79H544.905C544.661 251.79 544.474 251.905 544.488 252.063L545.063 257.319C545.102 257.409 545.169 257.484 545.255 257.533C545.34 257.582 545.439 257.603 545.537 257.592V257.592Z" fill="#6B65FF"/>
<path opacity="0.6" d="M545.537 257.592H546.772C547.016 257.592 547.202 257.462 547.174 257.319L546.599 252.063C546.599 251.905 546.369 251.79 546.125 251.79H544.905C544.661 251.79 544.474 251.905 544.488 252.063L545.063 257.319C545.102 257.409 545.169 257.484 545.255 257.533C545.34 257.582 545.439 257.603 545.537 257.592V257.592Z" fill="#FAFAFA"/>
<path d="M401.506 518.744H496.497C498.713 518.77 500.909 518.333 502.946 517.46C504.983 516.586 506.814 515.297 508.323 513.675C509.832 512.052 510.985 510.132 511.709 508.037C512.432 505.943 512.709 503.72 512.523 501.512L489.805 176.629C489.411 171.984 487.308 167.65 483.901 164.466C480.495 161.283 476.029 159.477 471.367 159.397H376.376C374.16 159.371 371.963 159.809 369.927 160.682C367.89 161.555 366.059 162.844 364.55 164.467C363.041 166.09 361.888 168.01 361.164 170.104C360.441 172.199 360.164 174.421 360.35 176.629L383.068 501.527C383.465 506.17 385.57 510.5 388.976 513.681C392.382 516.861 396.846 518.665 401.506 518.744Z" fill="#6B65FF"/>
<path opacity="0.2" d="M401.506 518.744H496.497C498.713 518.77 500.909 518.333 502.946 517.46C504.983 516.586 506.814 515.297 508.323 513.675C509.832 512.052 510.985 510.132 511.709 508.037C512.432 505.943 512.709 503.72 512.523 501.512L489.805 176.629C489.411 171.984 487.308 167.65 483.901 164.466C480.495 161.283 476.029 159.477 471.367 159.397H376.376C374.16 159.371 371.963 159.809 369.927 160.682C367.89 161.555 366.059 162.844 364.55 164.467C363.041 166.09 361.888 168.01 361.164 170.104C360.441 172.199 360.164 174.421 360.35 176.629L383.068 501.527C383.465 506.17 385.57 510.5 388.976 513.681C392.382 516.861 396.846 518.665 401.506 518.744Z" fill="black"/>
<path d="M351.328 276.808L349.895 276.909L351.478 299.542L352.91 299.442L351.328 276.808Z" fill="#6B65FF"/>
<path opacity="0.5" d="M351.328 276.808L349.895 276.909L351.478 299.542L352.91 299.442L351.328 276.808Z" fill="black"/>
<path d="M389.07 518.744H484.047C486.263 518.77 488.459 518.333 490.496 517.46C492.533 516.586 494.364 515.297 495.873 513.675C497.382 512.052 498.535 510.132 499.258 508.037C499.982 505.943 500.259 503.72 500.073 501.512L477.355 176.629C476.961 171.984 474.857 167.65 471.451 164.466C468.045 161.283 463.579 159.477 458.917 159.397H363.94C361.724 159.371 359.528 159.809 357.491 160.682C355.454 161.555 353.623 162.844 352.114 164.467C350.605 166.09 349.452 168.01 348.728 170.104C348.005 172.199 347.728 174.421 347.914 176.629L370.632 501.512C371.026 506.158 373.13 510.492 376.536 513.675C379.942 516.859 384.408 518.665 389.07 518.744V518.744Z" fill="#6B65FF"/>
<path opacity="0.5" d="M389.07 518.744H484.047C486.263 518.77 488.459 518.333 490.496 517.46C492.533 516.586 494.364 515.297 495.873 513.675C497.382 512.052 498.535 510.132 499.258 508.037C499.982 505.943 500.259 503.72 500.073 501.512L477.355 176.629C476.961 171.984 474.857 167.65 471.451 164.466C468.045 161.283 463.579 159.477 458.917 159.397H363.94C361.724 159.371 359.528 159.809 357.491 160.682C355.454 161.555 353.623 162.844 352.114 164.467C350.605 166.09 349.452 168.01 348.728 170.104C348.005 172.199 347.728 174.421 347.914 176.629L370.632 501.512C371.026 506.158 373.13 510.492 376.536 513.675C379.942 516.859 384.408 518.665 389.07 518.744V518.744Z" fill="black"/>
<path d="M406.704 262.876H424.281C424.694 262.893 425.107 262.82 425.49 262.663C425.873 262.506 426.217 262.268 426.499 261.965C426.782 261.662 426.995 261.302 427.125 260.909C427.255 260.516 427.299 260.1 427.253 259.688L423.046 199.519C422.974 198.658 422.585 197.854 421.953 197.265C421.321 196.676 420.492 196.343 419.628 196.331H402.08C401.668 196.316 401.257 196.391 400.876 196.549C400.494 196.707 400.152 196.945 399.871 197.248C399.59 197.55 399.378 197.91 399.249 198.302C399.119 198.694 399.076 199.109 399.122 199.519L403.329 259.688C403.4 260.542 403.783 261.34 404.406 261.928C405.029 262.517 405.847 262.854 406.704 262.876Z" fill="#6B65FF"/>
<path opacity="0.2" d="M406.704 262.876H424.281C424.694 262.893 425.107 262.82 425.49 262.663C425.873 262.506 426.217 262.268 426.499 261.965C426.782 261.662 426.995 261.302 427.125 260.909C427.255 260.516 427.299 260.1 427.253 259.688L423.046 199.519C422.974 198.658 422.585 197.854 421.953 197.265C421.321 196.676 420.492 196.343 419.628 196.331H402.08C401.668 196.316 401.257 196.391 400.876 196.549C400.494 196.707 400.152 196.945 399.871 197.248C399.59 197.55 399.378 197.91 399.249 198.302C399.119 198.694 399.076 199.109 399.122 199.519L403.329 259.688C403.4 260.542 403.783 261.34 404.406 261.928C405.029 262.517 405.847 262.854 406.704 262.876Z" fill="black"/>
<path d="M376.706 134.612H358.756V136.048H376.706V134.612Z" fill="#6B65FF"/>
<path opacity="0.2" d="M376.706 134.612H358.756V136.048H376.706V134.612Z" fill="black"/>
<path d="M324.306 75.3618H421.567C424.159 75.3656 426.644 76.3971 428.477 78.2303C430.31 80.0634 431.342 82.5486 431.346 85.141V121.242C431.342 123.835 430.31 126.32 428.477 128.153C426.644 129.986 424.159 131.018 421.567 131.022H414.817L417.445 141.634C413.631 141.287 409.928 140.167 406.56 138.342C403.193 136.518 400.232 134.027 397.858 131.022H324.306C321.715 131.014 319.232 129.981 317.4 128.149C315.567 126.317 314.535 123.834 314.527 121.242V85.141C314.535 82.5498 315.567 80.0668 317.4 78.2345C319.232 76.4021 321.715 75.3694 324.306 75.3618Z" fill="#6B65FF"/>
<path opacity="0.2" d="M324.306 75.3618H421.567C424.159 75.3656 426.644 76.3971 428.477 78.2303C430.31 80.0634 431.342 82.5486 431.346 85.141V121.242C431.342 123.835 430.31 126.32 428.477 128.153C426.644 129.986 424.159 131.018 421.567 131.022H414.817L417.445 141.634C413.631 141.287 409.928 140.167 406.56 138.342C403.193 136.518 400.232 134.027 397.858 131.022H324.306C321.715 131.014 319.232 129.981 317.4 128.149C315.567 126.317 314.535 123.834 314.527 121.242V85.141C314.535 82.5498 315.567 80.0668 317.4 78.2345C319.232 76.4021 321.715 75.3694 324.306 75.3618Z" fill="black"/>
<path d="M378.402 24.7048H376.955V36.7588H378.402V24.7048Z" fill="#2B95FB"/>
<path opacity="0.1" d="M378.402 24.7048H376.955V36.7588H378.402V24.7048Z" fill="#FAFAFA"/>
<path d="M363.483 8.84509H265.475C262.867 8.84889 260.367 9.88438 258.521 11.7254C256.675 13.5664 255.632 16.0632 255.62 18.6706V55.0784C255.624 57.6908 256.664 60.1951 258.511 62.0423C260.358 63.8895 262.862 64.929 265.475 64.9328H272.276L269.57 75.6266C273.42 75.2899 277.161 74.1718 280.565 72.3406C283.968 70.5094 286.963 68.0036 289.365 64.9763H363.483C366.094 64.9686 368.596 63.9279 370.443 62.0815C372.289 60.2351 373.33 57.733 373.337 55.1218V18.6706C373.322 16.0644 372.278 13.5697 370.432 11.7296C368.587 9.88938 366.089 8.85268 363.483 8.84509Z" fill="#2B95FB"/>
<path opacity="0.1" d="M363.483 8.84509H265.475C262.867 8.84889 260.367 9.88438 258.521 11.7254C256.675 13.5664 255.632 16.0632 255.62 18.6706V55.0784C255.624 57.6908 256.664 60.1951 258.511 62.0423C260.358 63.8895 262.862 64.929 265.475 64.9328H272.276L269.57 75.6266C273.42 75.2899 277.161 74.1718 280.565 72.3406C283.968 70.5094 286.963 68.0036 289.365 64.9763H363.483C366.094 64.9686 368.596 63.9279 370.443 62.0815C372.289 60.2351 373.33 57.733 373.337 55.1218V18.6706C373.322 16.0644 372.278 13.5697 370.432 11.7296C368.587 9.88938 366.089 8.85268 363.483 8.84509Z" fill="#FAFAFA"/>
<path d="M299.503 522.733H203.781C201.548 522.759 199.335 522.318 197.282 521.438C195.23 520.559 193.384 519.259 191.864 517.624C190.343 515.989 189.181 514.054 188.452 511.944C187.724 509.833 187.444 507.593 187.632 505.368L210.524 177.987C210.924 173.307 213.045 168.942 216.477 165.734C219.909 162.527 224.408 160.706 229.104 160.623H324.826C327.059 160.597 329.272 161.038 331.324 161.918C333.377 162.797 335.222 164.096 336.743 165.732C338.264 167.367 339.426 169.302 340.154 171.412C340.883 173.523 341.163 175.762 340.975 177.987L318.083 505.368C317.686 510.05 315.566 514.417 312.133 517.625C308.701 520.833 304.2 522.653 299.503 522.733Z" fill="#2B95FB"/>
<path opacity="0.5" d="M299.503 522.733H203.781C201.548 522.759 199.335 522.318 197.282 521.438C195.23 520.559 193.384 519.259 191.864 517.624C190.343 515.989 189.181 514.054 188.452 511.944C187.724 509.833 187.444 507.593 187.632 505.368L210.524 177.987C210.924 173.307 213.045 168.942 216.477 165.734C219.909 162.527 224.408 160.706 229.104 160.623H324.826C327.059 160.597 329.272 161.038 331.324 161.918C333.377 162.797 335.222 164.096 336.743 165.732C338.264 167.367 339.426 169.302 340.154 171.412C340.883 173.523 341.163 175.762 340.975 177.987L318.083 505.368C317.686 510.05 315.566 514.417 312.133 517.625C308.701 520.833 304.2 522.653 299.503 522.733Z" fill="black"/>
<path d="M259.246 155.544H253.849V156.991H259.246V155.544Z" fill="#2B95FB"/>
<path opacity="0.3" d="M259.246 155.544H253.849V156.991H259.246V155.544Z" fill="black"/>
<path d="M244.168 155.544H227.194V156.991H244.168V155.544Z" fill="#2B95FB"/>
<path opacity="0.3" d="M244.168 155.544H227.194V156.991H244.168V155.544Z" fill="black"/>
<path d="M286.957 522.733H191.25C189.017 522.759 186.803 522.318 184.751 521.438C182.699 520.559 180.853 519.259 179.333 517.624C177.812 515.989 176.65 514.054 175.921 511.944C175.192 509.833 174.913 507.593 175.101 505.368L197.993 177.987C198.39 173.306 200.51 168.939 203.942 165.731C207.375 162.523 211.875 160.703 216.573 160.623H312.28C314.513 160.597 316.726 161.038 318.779 161.918C320.831 162.797 322.677 164.096 324.197 165.732C325.718 167.367 326.88 169.302 327.609 171.412C328.337 173.523 328.617 175.762 328.429 177.987L305.537 505.368C305.14 510.05 303.02 514.417 299.587 517.625C296.155 520.833 291.654 522.653 286.957 522.733V522.733Z" fill="#2B95FB"/>
<path opacity="0.3" d="M286.957 522.733H191.25C189.017 522.759 186.803 522.318 184.751 521.438C182.699 520.559 180.853 519.259 179.333 517.624C177.812 515.989 176.65 514.054 175.921 511.944C175.192 509.833 174.913 507.593 175.101 505.368L197.993 177.987C198.39 173.306 200.51 168.939 203.942 165.731C207.375 162.523 211.875 160.703 216.573 160.623H312.28C314.513 160.597 316.726 161.038 318.779 161.918C320.831 162.797 322.677 164.096 324.197 165.732C325.718 167.367 326.88 169.302 327.609 171.412C328.337 173.523 328.617 175.762 328.429 177.987L305.537 505.368C305.14 510.05 303.02 514.417 299.587 517.625C296.155 520.833 291.654 522.653 286.957 522.733V522.733Z" fill="black"/>
<path d="M301.312 503.892H175.289C174.987 503.891 174.688 503.828 174.411 503.707C174.134 503.586 173.885 503.409 173.679 503.188C173.473 502.967 173.315 502.707 173.213 502.422C173.112 502.137 173.069 501.835 173.089 501.534L195.388 182.618C195.428 182.059 195.679 181.536 196.09 181.154C196.501 180.773 197.041 180.562 197.602 180.563H323.61C323.914 180.562 324.214 180.624 324.493 180.744C324.771 180.865 325.022 181.041 325.229 181.262C325.437 181.483 325.597 181.745 325.699 182.03C325.802 182.316 325.844 182.619 325.824 182.922L303.482 501.838C303.446 502.391 303.202 502.909 302.799 503.29C302.397 503.671 301.866 503.886 301.312 503.892V503.892Z" fill="#2B95FB"/>
<path opacity="0.9" d="M301.312 503.892H175.289C174.987 503.891 174.688 503.828 174.411 503.707C174.134 503.586 173.885 503.409 173.679 503.188C173.473 502.967 173.315 502.707 173.213 502.422C173.112 502.137 173.069 501.835 173.089 501.534L195.388 182.618C195.428 182.059 195.679 181.536 196.09 181.154C196.501 180.773 197.041 180.562 197.602 180.563H323.61C323.914 180.562 324.214 180.624 324.493 180.744C324.771 180.865 325.022 181.041 325.229 181.262C325.437 181.483 325.597 181.745 325.699 182.03C325.802 182.316 325.844 182.619 325.824 182.922L303.482 501.838C303.446 502.391 303.202 502.909 302.799 503.29C302.397 503.671 301.866 503.886 301.312 503.892V503.892Z" fill="#FAFAFA"/>
<path d="M298.244 213.209H216.443C214.219 213.247 212.089 214.109 210.464 215.627C208.838 217.145 207.834 219.212 207.645 221.428L199.122 343.27C199.033 344.324 199.165 345.385 199.511 346.385C199.857 347.384 200.408 348.301 201.128 349.075C201.849 349.849 202.724 350.464 203.697 350.879C204.67 351.295 205.719 351.503 206.776 351.489H212.449L209.555 360.417C216.247 359.814 222.436 356.608 226.789 351.489H288.578C290.801 351.45 292.932 350.589 294.557 349.071C296.182 347.552 297.186 345.486 297.376 343.27L305.899 221.428C305.985 220.374 305.851 219.314 305.505 218.315C305.158 217.317 304.607 216.401 303.887 215.628C303.166 214.854 302.292 214.239 301.321 213.823C300.349 213.406 299.301 213.197 298.244 213.209V213.209Z" fill="#2B95FB"/>
<path opacity="0.6" d="M298.244 213.209H216.443C214.219 213.247 212.089 214.109 210.464 215.627C208.838 217.145 207.834 219.212 207.645 221.428L199.122 343.27C199.033 344.324 199.165 345.385 199.511 346.385C199.857 347.384 200.408 348.301 201.128 349.075C201.849 349.849 202.724 350.464 203.697 350.879C204.67 351.295 205.719 351.503 206.776 351.489H212.449L209.555 360.417C216.247 359.814 222.436 356.608 226.789 351.489H288.578C290.801 351.45 292.932 350.589 294.557 349.071C296.182 347.552 297.186 345.486 297.376 343.27L305.899 221.428C305.985 220.374 305.851 219.314 305.505 218.315C305.158 217.317 304.607 216.401 303.887 215.628C303.166 214.854 302.292 214.239 301.321 213.823C300.349 213.406 299.301 213.197 298.244 213.209V213.209Z" fill="#FAFAFA"/>
<path d="M205.083 376.016H286.885C287.942 376.003 288.991 376.21 289.964 376.626C290.937 377.042 291.812 377.656 292.533 378.431C293.254 379.205 293.805 380.121 294.15 381.121C294.496 382.121 294.628 383.182 294.54 384.236L290.879 436.576C290.689 438.791 289.685 440.858 288.06 442.377C286.434 443.895 284.304 444.756 282.081 444.795H276.394L277.985 453.723C274.848 453.461 271.803 452.528 269.057 450.988C266.311 449.448 263.927 447.336 262.068 444.795H200.25C199.193 444.809 198.144 444.601 197.171 444.185C196.198 443.77 195.323 443.155 194.602 442.381C193.881 441.607 193.33 440.69 192.985 439.69C192.639 438.691 192.507 437.63 192.595 436.576L196.256 384.236C196.446 382.015 197.455 379.944 199.086 378.425C200.717 376.906 202.855 376.048 205.083 376.016V376.016Z" fill="#2B95FB"/>
<path opacity="0.6" d="M205.083 376.016H286.885C287.942 376.003 288.991 376.21 289.964 376.626C290.937 377.042 291.812 377.656 292.533 378.431C293.254 379.205 293.805 380.121 294.15 381.121C294.496 382.121 294.628 383.182 294.54 384.236L290.879 436.576C290.689 438.791 289.685 440.858 288.06 442.377C286.434 443.895 284.304 444.756 282.081 444.795H276.394L277.985 453.723C274.848 453.461 271.803 452.528 269.057 450.988C266.311 449.448 263.927 447.336 262.068 444.795H200.25C199.193 444.809 198.144 444.601 197.171 444.185C196.198 443.77 195.323 443.155 194.602 442.381C193.881 441.607 193.33 440.69 192.985 439.69C192.639 438.691 192.507 437.63 192.595 436.576L196.256 384.236C196.446 382.015 197.455 379.944 199.086 378.425C200.717 376.906 202.855 376.048 205.083 376.016V376.016Z" fill="#FAFAFA"/>
<path d="M278.955 169.783C278.898 170.516 278.57 171.202 278.035 171.708C277.5 172.213 276.797 172.502 276.061 172.518C275.709 172.523 275.359 172.454 275.035 172.316C274.711 172.178 274.42 171.974 274.18 171.716C273.94 171.458 273.757 171.153 273.642 170.82C273.527 170.487 273.484 170.134 273.514 169.783C273.578 169.051 273.907 168.369 274.441 167.865C274.974 167.36 275.674 167.07 276.408 167.048C276.76 167.042 277.11 167.111 277.434 167.249C277.758 167.387 278.049 167.592 278.289 167.849C278.529 168.107 278.712 168.412 278.827 168.745C278.942 169.078 278.985 169.432 278.955 169.783V169.783Z" fill="#2B95FB"/>
<path opacity="0.5" d="M278.955 169.783C278.898 170.516 278.57 171.202 278.035 171.708C277.5 172.213 276.797 172.502 276.061 172.518C275.709 172.523 275.359 172.454 275.035 172.316C274.711 172.178 274.42 171.974 274.18 171.716C273.94 171.458 273.757 171.153 273.642 170.82C273.527 170.487 273.484 170.134 273.514 169.783C273.578 169.051 273.907 168.369 274.441 167.865C274.974 167.36 275.674 167.07 276.408 167.048C276.76 167.042 277.11 167.111 277.434 167.249C277.758 167.387 278.049 167.592 278.289 167.849C278.529 168.107 278.712 168.412 278.827 168.745C278.942 169.078 278.985 169.432 278.955 169.783V169.783Z" fill="black"/>
<path d="M264.861 172.518H245.774C245.423 172.521 245.074 172.451 244.751 172.312C244.428 172.173 244.138 171.968 243.898 171.711C243.659 171.454 243.475 171.149 243.36 170.817C243.244 170.485 243.199 170.133 243.227 169.783C243.288 169.05 243.617 168.366 244.151 167.861C244.685 167.356 245.387 167.067 246.121 167.048H265.208C265.559 167.045 265.908 167.115 266.231 167.253C266.554 167.392 266.844 167.597 267.084 167.854C267.323 168.111 267.507 168.416 267.622 168.748C267.738 169.08 267.783 169.432 267.755 169.783V169.783C267.694 170.515 267.365 171.199 266.831 171.704C266.297 172.209 265.595 172.499 264.861 172.518Z" fill="#2B95FB"/>
<path opacity="0.5" d="M264.861 172.518H245.774C245.423 172.521 245.074 172.451 244.751 172.312C244.428 172.173 244.138 171.968 243.898 171.711C243.659 171.454 243.475 171.149 243.36 170.817C243.244 170.485 243.199 170.133 243.227 169.783C243.288 169.05 243.617 168.366 244.151 167.861C244.685 167.356 245.387 167.067 246.121 167.048H265.208C265.559 167.045 265.908 167.115 266.231 167.253C266.554 167.392 266.844 167.597 267.084 167.854C267.323 168.111 267.507 168.416 267.622 168.748C267.738 169.08 267.783 169.432 267.755 169.783V169.783C267.694 170.515 267.365 171.199 266.831 171.704C266.297 172.209 265.595 172.499 264.861 172.518Z" fill="black"/>
<path d="M162.96 235.392L165.232 239.834C166.028 241.281 166.838 242.859 167.677 244.349C169.356 247.345 171.063 250.311 172.858 253.191C176.282 258.862 180.205 264.218 184.579 269.195C185.664 270.28 186.836 271.583 187.589 272.176C188.64 273.024 189.763 273.78 190.946 274.433C193.764 275.92 196.696 277.178 199.715 278.196C206.22 280.355 212.844 282.138 219.554 283.535L219.091 291.509C211.555 291.95 203.993 291.508 196.56 290.192C192.6 289.506 188.721 288.415 184.984 286.936C182.904 286.106 180.916 285.063 179.051 283.825C178.086 283.181 177.167 282.471 176.302 281.698L174.015 279.686C168.494 274.329 163.591 268.368 159.4 261.916C157.302 258.776 155.32 255.593 153.511 252.322C152.599 250.687 151.702 249.038 150.848 247.374C149.994 245.709 149.184 244.089 148.33 242.208L162.96 235.392Z" fill="#E58A7B"/>
<path d="M216.66 283.535L223.099 278.992L226.5 292.131C226.5 292.131 220.827 294.128 216.558 291.248L216.66 283.535Z" fill="#E58A7B"/>
<path d="M231.984 276.011L234.27 287.008L226.485 292.131L223.085 278.992L231.984 276.011Z" fill="#E58A7B"/>
<path d="M272.892 264.362L271.141 264.044C269.312 263.727 267.434 263.841 265.657 264.376L260.606 265.91C263.184 260.582 264.15 254.617 263.385 248.748C262.777 244.32 259.449 245.333 259.449 245.333C259.449 245.333 254.572 263.74 244.443 270.801L241.26 273.015L245.803 305.444L249.551 305.097C250.998 305.097 259.232 305.097 264.542 305.097C266.103 305.029 267.629 304.612 269.006 303.876C270.384 303.139 271.578 302.103 272.501 300.842C275.207 297.261 276.757 292.94 276.944 288.455L277.899 273.363C278.13 268.906 275.989 264.897 272.892 264.362Z" fill="#2B95FB"/>
<path opacity="0.9" d="M272.892 264.362L271.141 264.044C269.312 263.727 267.434 263.841 265.657 264.376L260.606 265.91C263.184 260.582 264.15 254.617 263.385 248.748C262.777 244.32 259.449 245.333 259.449 245.333C259.449 245.333 254.572 263.74 244.443 270.801L241.26 273.015L245.803 305.444L249.551 305.097C250.998 305.097 259.232 305.097 264.542 305.097C266.103 305.029 267.629 304.612 269.006 303.876C270.384 303.139 271.578 302.103 272.501 300.842C275.207 297.261 276.757 292.94 276.944 288.455L277.899 273.363C278.13 268.906 275.989 264.897 272.892 264.362Z" fill="#FAFAFA"/>
<path d="M231.738 312.968L246.006 309.857C247.12 309.626 247.901 308.092 247.728 306.457L244.009 269.311C243.835 267.676 242.793 266.547 241.679 266.779L227.411 269.89C226.297 270.121 225.516 271.655 225.689 273.29L229.408 310.436C229.582 312.071 230.624 313.2 231.738 312.968Z" fill="#2B95FB"/>
<path d="M204.244 190.519C204.071 191.358 204.374 192.125 204.924 192.241C205.474 192.357 206.067 191.778 206.241 190.939C206.415 190.099 206.111 189.318 205.561 189.202C205.011 189.086 204.418 189.68 204.244 190.519Z" fill="#263238"/>
<path d="M204.302 192.111C204.768 194.884 205.61 197.581 206.805 200.127C206.149 200.419 205.437 200.563 204.719 200.548C204.001 200.533 203.295 200.36 202.652 200.04L204.302 192.111Z" fill="#DF5753"/>
<path d="M206.53 185.382C206.432 185.38 206.337 185.35 206.256 185.295C205.7 184.994 205.081 184.83 204.45 184.815C203.819 184.8 203.193 184.934 202.623 185.208C202.502 185.263 202.365 185.267 202.24 185.221C202.116 185.175 202.014 185.082 201.958 184.962C201.929 184.902 201.913 184.836 201.911 184.769C201.909 184.702 201.92 184.636 201.945 184.573C201.969 184.511 202.006 184.454 202.053 184.407C202.1 184.359 202.156 184.322 202.218 184.297C202.94 183.953 203.733 183.788 204.531 183.816C205.33 183.844 206.11 184.063 206.805 184.456C206.862 184.491 206.91 184.537 206.948 184.591C206.986 184.646 207.012 184.707 207.026 184.772C207.039 184.837 207.039 184.904 207.026 184.969C207.013 185.034 206.987 185.096 206.95 185.15C206.906 185.221 206.844 185.28 206.77 185.321C206.697 185.361 206.614 185.382 206.53 185.382V185.382Z" fill="#263238"/>
<path d="M174.464 193.21C175.911 200.981 177.503 215.235 172.062 220.415C172.062 220.415 174.189 228.316 188.645 228.316C204.562 228.316 196.227 220.415 196.227 220.415C187.545 218.346 187.791 211.921 189.296 205.944L174.464 193.21Z" fill="#E58A7B"/>
<path d="M169.862 222.643C168.82 220.097 168.994 215.408 169.761 215.336C172.771 215.133 188.833 215.09 194.144 217.13C194.846 217.352 195.497 217.711 196.06 218.186C196.622 218.662 197.084 219.244 197.42 219.9C197.755 220.556 197.956 221.271 198.013 222.006C198.069 222.74 197.978 223.478 197.747 224.177L169.862 222.643Z" fill="#2B95FB"/>
<path d="M134.366 513.704C133.432 513.698 132.501 513.597 131.588 513.4C131.541 513.391 131.498 513.369 131.464 513.335C131.431 513.302 131.408 513.258 131.4 513.212C131.394 513.163 131.399 513.114 131.417 513.068C131.435 513.023 131.464 512.982 131.501 512.951C131.632 512.864 134.569 510.867 136.117 511.215C136.285 511.251 136.442 511.323 136.579 511.425C136.717 511.527 136.831 511.658 136.913 511.808C137.039 511.983 137.107 512.193 137.107 512.408C137.107 512.624 137.039 512.834 136.913 513.009C136.556 513.289 136.147 513.494 135.71 513.613C135.273 513.733 134.816 513.763 134.366 513.704V513.704ZM132.297 513.038C133.889 513.298 136.059 513.298 136.523 512.691C136.523 512.691 136.696 512.459 136.523 512.054C136.476 511.965 136.41 511.889 136.33 511.828C136.25 511.768 136.157 511.727 136.059 511.707C134.698 511.774 133.387 512.248 132.297 513.067V513.038Z" fill="#2B95FB"/>
<path d="M131.646 513.443H131.516C131.475 513.42 131.443 513.386 131.422 513.345C131.402 513.304 131.394 513.257 131.4 513.211C131.4 513.081 131.66 510.013 132.847 509.001C132.997 508.877 133.171 508.786 133.357 508.731C133.544 508.676 133.739 508.66 133.932 508.682C134.121 508.685 134.303 508.753 134.448 508.874C134.593 508.995 134.692 509.163 134.728 509.348C134.945 510.534 132.818 512.85 131.733 513.457L131.646 513.443ZM133.788 509.102C133.579 509.104 133.379 509.181 133.223 509.319C132.471 510.272 132.032 511.435 131.964 512.647C133.05 511.822 134.41 510.071 134.28 509.362C134.28 509.362 134.28 509.145 133.903 509.102H133.788Z" fill="#2B95FB"/>
<path d="M119.375 513.183H130.011L139.807 488.568H129.186L119.375 513.183Z" fill="#E58A7B"/>
<path d="M130.85 511.953H118.912C118.699 511.954 118.493 512.028 118.327 512.162C118.162 512.296 118.046 512.482 118 512.691L115.902 522.14C115.854 522.37 115.859 522.608 115.916 522.836C115.972 523.064 116.08 523.276 116.23 523.457C116.38 523.638 116.569 523.783 116.783 523.88C116.997 523.978 117.23 524.026 117.465 524.021C121.633 523.949 123.658 523.703 128.911 523.703C132.138 523.703 138.794 524.05 143.266 524.05C147.737 524.05 148.301 519.709 146.478 519.231C138.288 517.437 135.206 514.962 132.587 512.618C132.111 512.188 131.492 511.951 130.85 511.953V511.953Z" fill="#263238"/>
<path d="M217.398 230.761C220.567 236.55 223.692 242.483 226.775 248.358L236.007 265.997L238.322 270.338C238.812 271.39 239.393 272.398 240.058 273.348C241.675 275.297 243.637 276.93 245.847 278.167C251.195 281.218 256.875 283.646 262.777 285.402L261.88 293.332C260.064 293.37 258.248 293.312 256.439 293.158C254.64 293.044 252.848 292.836 251.07 292.536C247.391 291.969 243.786 290.998 240.319 289.642C236.371 288.159 232.759 285.901 229.698 283C228.174 281.423 226.839 279.675 225.718 277.791L222.998 273.449C219.438 267.661 216.009 261.844 212.709 255.998C209.424 250.108 206.241 244.205 203.188 238.17L217.398 230.761Z" fill="#E58A7B"/>
<path d="M145.089 229.228C140.748 238.503 154.625 267.791 154.625 267.791L178.328 256.794C175.741 248.484 172.519 240.386 168.69 232.57C162.497 220.285 149.488 219.749 145.089 229.228Z" fill="#2B95FB"/>
<path opacity="0.8" d="M145.089 229.228C140.748 238.503 154.625 267.791 154.625 267.791L178.328 256.794C175.741 248.484 172.519 240.386 168.69 232.57C162.497 220.285 149.488 219.749 145.089 229.228Z" fill="#FAFAFA"/>
<path d="M157.809 231.123L152.455 262.886C153.728 265.881 154.625 267.792 154.625 267.792L178.328 256.794C178.328 256.794 167.62 238.286 157.809 231.123Z" fill="#2B95FB"/>
<path opacity="0.7" d="M157.809 231.123L152.455 262.886C153.728 265.881 154.625 267.792 154.625 267.792L178.328 256.794C178.328 256.794 167.62 238.286 157.809 231.123Z" fill="#FAFAFA"/>
<path d="M212.579 223.367C212.579 223.367 223.895 236.159 213.216 315.255H156.361C155.956 306.572 161.441 263.957 153.033 222.817C159.318 221.607 165.674 220.804 172.062 220.415C180.11 219.952 188.179 219.952 196.227 220.415C201.745 220.979 207.212 221.966 212.579 223.367Z" fill="#2B95FB"/>
<path opacity="0.8" d="M212.579 223.367C212.579 223.367 223.895 236.159 213.216 315.255H156.361C155.956 306.572 161.441 263.957 153.033 222.817C159.318 221.607 165.674 220.804 172.062 220.415C180.11 219.952 188.179 219.952 196.227 220.415C201.745 220.979 207.212 221.966 212.579 223.367Z" fill="#FAFAFA"/>
<path d="M217.166 242.193L208.383 263.899L217.166 276.676C218.034 265.198 218.034 253.671 217.166 242.193V242.193Z" fill="#2B95FB"/>
<path opacity="0.7" d="M217.166 242.193L208.383 263.899L217.166 276.676C218.034 265.198 218.034 253.671 217.166 242.193V242.193Z" fill="#FAFAFA"/>
<path d="M198.745 230.385C195.244 239.936 209.309 268.906 209.309 268.906L234.777 256.07C231.514 247.387 227.333 239.077 222.303 231.282C214.677 220.14 202.594 219.952 198.745 230.385Z" fill="#2B95FB"/>
<path opacity="0.8" d="M198.745 230.385C195.244 239.936 209.309 268.906 209.309 268.906L234.777 256.07C231.514 247.387 227.333 239.077 222.303 231.282C214.677 220.14 202.594 219.952 198.745 230.385Z" fill="#FAFAFA"/>
<path d="M260.664 285.778L271.083 281.611L273.977 294.171C273.977 294.171 265.7 297.167 259.68 292.811L260.664 285.778Z" fill="#E58A7B"/>
<path d="M282.573 281.741L280.966 292.97L273.963 294.171L271.083 281.611L282.573 281.741Z" fill="#E58A7B"/>
<path d="M129.172 488.583H139.807L132.76 506.266L122.92 504.269L129.172 488.583Z" fill="#CF6F64"/>
<path d="M176.62 182.907C175.173 193.341 173.726 199.375 177.792 205.756C183.971 215.35 197.675 213.281 202.276 203.499C206.429 194.701 208.209 179.102 198.977 172.894C196.941 171.536 194.594 170.717 192.156 170.513C189.717 170.308 187.266 170.726 185.033 171.726C182.8 172.727 180.857 174.277 179.385 176.232C177.914 178.188 176.963 180.484 176.62 182.907V182.907Z" fill="#E58A7B"/>
<path d="M216.732 165.369C207.732 157.049 214.851 154.936 214.851 154.936C214.851 154.936 204.982 150.855 208.889 159.595C214.345 171.78 199.064 168.032 191.742 159.595C187.227 154.386 175.347 159.726 175.926 164.805C176.504 169.884 157.838 165.948 166.288 177.032C166.447 188.609 170.948 199.867 176.924 202.92C187.169 208.144 194.853 193.529 197.718 181.822C213.172 189.245 226.051 173.979 216.732 165.369Z" fill="#263238"/>
<path d="M189.904 188.797C189.962 191.43 190.882 193.972 192.523 196.032C194.708 198.695 197.197 197.233 197.776 194.151C198.297 191.373 197.776 186.641 195.026 185.092C192.277 183.544 189.889 185.642 189.904 188.797Z" fill="#E58A7B"/>
<path d="M166.389 166.194C171.033 166.018 175.589 167.5 179.239 170.376C179.239 170.376 176.62 159.176 166.389 166.194Z" fill="#263238"/>
<path d="M188.312 315.255C188.312 315.255 190.439 358.319 198.297 396.29C200.8 408.315 199.165 421.193 192.118 431.25C171.411 460.785 138.577 500.116 138.577 500.116L121.372 498.191C121.372 498.191 149.228 446.546 163.495 420.89C166.737 415.101 169.602 409.805 167.156 403.525C143.526 343.545 156.304 315.255 156.304 315.255H188.312Z" fill="#2B95FB"/>
<path opacity="0.3" d="M188.312 315.255C188.312 315.255 190.439 358.319 198.297 396.29C200.8 408.315 199.165 421.193 192.118 431.25C171.411 460.785 138.577 500.116 138.577 500.116L121.372 498.191C121.372 498.191 149.228 446.546 163.495 420.89C166.737 415.101 169.602 409.805 167.156 403.525C143.526 343.545 156.304 315.255 156.304 315.255H188.312Z" fill="black"/>
<path d="M191.51 352.473L175.043 332.822C174.421 341.635 179.746 374.598 198.007 394.857C195.099 380.575 193.001 365.511 191.51 352.473Z" fill="#2B95FB"/>
<path opacity="0.4" d="M191.51 352.473L175.043 332.822C174.421 341.635 179.746 374.598 198.007 394.857C195.099 380.575 193.001 365.511 191.51 352.473Z" fill="black"/>
<path d="M143.425 497.497L140.053 504.471L119.317 499.146L120.967 492.678L143.425 497.497Z" fill="#2B95FB"/>
<path opacity="0.1" d="M143.425 497.497L140.053 504.471L119.317 499.146L120.967 492.678L143.425 497.497Z" fill="black"/>
<path d="M205.214 513.183H215.835L218.946 488.568H208.325L205.214 513.183Z" fill="#E58A7B"/>
<path d="M220.494 513.703C219.397 513.703 218.303 513.601 217.224 513.399C217.173 513.391 217.127 513.367 217.09 513.331C217.054 513.294 217.03 513.248 217.022 513.197C217.013 513.145 217.021 513.092 217.044 513.045C217.067 512.998 217.105 512.96 217.152 512.936C217.311 512.85 221.015 510.737 222.795 511.214C222.962 511.253 223.118 511.326 223.255 511.428C223.392 511.53 223.506 511.66 223.591 511.808C223.705 511.969 223.765 512.161 223.765 512.358C223.765 512.554 223.705 512.747 223.591 512.907C223.172 513.544 221.855 513.703 220.494 513.703ZM218.035 513.038C220.031 513.313 222.723 513.269 223.2 512.604C223.2 512.517 223.331 512.372 223.2 512.054C223.147 511.964 223.076 511.887 222.992 511.828C222.907 511.768 222.81 511.726 222.708 511.706C221.565 511.431 219.337 512.401 218.107 513.067L218.035 513.038Z" fill="#2B95FB"/>
<path d="M217.267 513.443C217.22 513.456 217.17 513.456 217.123 513.443C217.089 513.415 217.063 513.379 217.046 513.339C217.028 513.299 217.02 513.255 217.021 513.211C217.021 513.081 217.325 510.216 218.671 509.116C218.867 508.944 219.097 508.816 219.347 508.741C219.597 508.666 219.86 508.646 220.118 508.682C220.813 508.755 221.001 509.102 221.044 509.391C221.247 510.592 218.7 512.893 217.427 513.457L217.267 513.443ZM219.872 509.102C219.547 509.1 219.232 509.219 218.989 509.435C218.184 510.351 217.679 511.492 217.542 512.705C218.859 511.924 220.581 510.115 220.436 509.391C220.436 509.391 220.436 509.16 219.944 509.102H219.872Z" fill="#2B95FB"/>
<path d="M216.139 511.953H204.562C204.35 511.952 204.145 512.025 203.981 512.16C203.817 512.295 203.706 512.482 203.665 512.691L201.553 522.14C201.502 522.368 201.504 522.604 201.558 522.831C201.612 523.058 201.717 523.27 201.865 523.451C202.012 523.632 202.199 523.777 202.41 523.876C202.622 523.975 202.853 524.024 203.086 524.021C207.283 523.949 213.332 523.703 218.584 523.703C224.749 523.703 230.059 524.05 237.28 524.05C241.621 524.05 242.851 519.709 241.028 519.231C232.707 517.408 225.921 517.22 218.729 512.792C217.964 512.269 217.065 511.978 216.139 511.953V511.953Z" fill="#263238"/>
<path d="M208.325 488.583H218.96L216.674 506.512L206.255 504.905L208.325 488.583Z" fill="#CF6F64"/>
<path d="M213.216 315.255C213.216 315.255 222.115 345.006 236.817 383.266C241.607 395.711 243.459 407.692 240.131 418.227C229.813 450.93 220.9 500.116 220.9 500.116L203.173 498.191C203.173 498.191 202.493 448.022 208.773 422.163C212 408.894 210.901 404.06 207.587 399.676C162.439 339.609 174.565 315.298 174.565 315.298L213.216 315.255Z" fill="#2B95FB"/>
<path opacity="0.3" d="M213.216 315.255C213.216 315.255 222.115 345.006 236.817 383.266C241.607 395.711 243.459 407.692 240.131 418.227C229.813 450.93 220.9 500.116 220.9 500.116L203.173 498.191C203.173 498.191 202.493 448.022 208.773 422.163C212 408.894 210.901 404.06 207.587 399.676C162.439 339.609 174.565 315.298 174.565 315.298L213.216 315.255Z" fill="black"/>
<path d="M223.967 497.106L223.041 504.167L202.117 500.622L201.495 494.168L223.967 497.106Z" fill="#2B95FB"/>
<path opacity="0.1" d="M223.967 497.106L223.041 504.167L202.117 500.622L201.495 494.168L223.967 497.106Z" fill="black"/>
</svg>
