<svg width="233" height="1374" viewBox="0 0 233 1374" fill="none" xmlns="http://www.w3.org/2000/svg">
<path fill-rule="evenodd" clip-rule="evenodd" d="M427.412 1368.53C335.448 1332.58 296.963 1360.36 296.963 1360.36C133.028 1285.34 59.5071 1141.64 68.2992 1045.84C77.0914 950.038 165.013 854.239 147.428 758.44C129.844 662.641 33.3763 566.842 6.99996 471.043C-19.3764 375.244 28.1896 94.2297 299.5 -1.30644e-05C299.5 -1.30644e-05 395.271 45.926 481.237 70.7607C567.203 95.5954 358.439 183.646 358.439 183.646L358.439 231.546C358.439 279.446 358.439 375.244 358.439 471.043C358.439 566.842 358.439 662.641 358.439 758.44C358.439 854.239 358.439 950.038 358.439 1045.84C358.439 1141.64 358.439 1237.44 358.439 1285.34L435.409 1338.46C435.409 1338.46 480.459 1389.26 427.412 1368.53Z" fill="url(#paint0_linear)"/>
<defs>
<linearGradient id="paint0_linear" x1="133.526" y1="119.926" x2="133.526" y2="1291.73" gradientUnits="userSpaceOnUse">
<stop stop-color="#6B65FF"/>
<stop offset="1" stop-color="#2B95FB"/>
</linearGradient>
</defs>
</svg>
